<?xml version="1.0" encoding="UTF-8"?>
<svg width="16px" height="20px" viewBox="0 0 16 20" version="1.1" xmlns="http://www.w3.org/2000/svg" xmlns:xlink="http://www.w3.org/1999/xlink">
    <title>apple</title>
    <g id="Desktop-/-Mobile" stroke="none" stroke-width="1" fill="none" fill-rule="evenodd">
        <g id="Login-/-Mobile" transform="translate(-49.000000, -549.000000)" fill="#000000" fill-rule="nonzero">
            <g id="apple" transform="translate(49.000000, 549.000000)">
                <path d="M5.30468264,20 C2.40147635,19.9832886 0,14.0618893 0,11.046259 C0,6.12023591 3.69849151,5.04179757 5.12386327,5.04179757 C5.76621781,5.04179757 6.45211987,5.29383924 7.05709897,5.51687384 C7.48015383,5.6724537 7.91768642,5.8330584 8.16102678,5.8330584 C8.30668048,5.8330584 8.64991725,5.69643591 8.95295925,5.5765629 C9.59923801,5.3194964 10.4034385,5 11.3399198,5 C11.3415961,5 11.343844,5 11.3454823,5 C12.0447572,5 14.1649843,5.15333391 15.4396733,7.06597266 L15.7382577,7.51428782 L15.3085354,7.83827612 C14.6946411,8.30109481 13.5745211,9.14534491 13.5745211,10.8176666 C13.5745211,12.7983311 14.843076,13.560052 15.4525128,13.9264089 C15.7215321,14.0881175 16,14.254851 16,14.6195329 C16,14.8576421 14.0980057,19.97046 11.3359955,19.97046 C10.6601517,19.97046 10.1824243,19.7674867 9.76104583,19.5884956 C9.33467633,19.4072586 8.9668655,19.2511458 8.35910514,19.2511458 C8.05103404,19.2511458 7.66146849,19.396676 7.24904335,19.5511519 C6.68544011,19.7613199 6.04750509,20 5.32365611,20 L5.30468264,20 Z" id="Path"></path>
                <path d="M11.9977891,0 C12.076258,3.02630298 10.0528139,5.1258129 8.03173876,4.99413787 C7.69870275,2.57904353 10.0525645,0 11.9977891,0 Z" id="Path"></path>
            </g>
        </g>
    </g>
</svg>