<?xml version="1.0" encoding="UTF-8"?>
<svg width="34px" height="31px" viewBox="0 0 34 31" version="1.1" xmlns="http://www.w3.org/2000/svg" xmlns:xlink="http://www.w3.org/1999/xlink">
    <title>comment</title>
    <g id="Desktop-/-Mobile" stroke="none" stroke-width="1" fill="none" fill-rule="evenodd">
        <g id="Landing-Page-/-Mobile" transform="translate(-171.000000, -3217.000000)" fill="#FFFFFF" fill-rule="nonzero">
            <g id="comment" transform="translate(171.000000, 3217.000000)">
                <path d="M29.3256226,0 L4.67437743,0 C2.09698485,0 0,2.07775843 0,4.63243683 L0,19.5831254 C0,22.1320454 2.08785399,24.2065133 4.65777587,24.2155623 L4.65777587,31 L14.4960694,24.2155623 L29.3256226,24.2155623 C31.9030151,24.2155623 34,22.1373925 34,19.5831254 L34,4.63243683 C34,2.07775843 31.9030151,0 29.3256226,0 Z M32.0078125,19.5831254 C32.0078125,21.0486413 30.8046142,22.2412496 29.3256226,22.2412496 L13.8710205,22.2412496 L6.64996337,27.2210421 L6.64996337,22.2412496 L4.67437743,22.2412496 C3.19538577,22.2412496 1.9921875,21.0486413 1.9921875,19.5831254 L1.9921875,4.63243683 C1.9921875,3.16650965 3.19538577,1.97431271 4.67437743,1.97431271 L29.3256226,1.97431271 C30.8046142,1.97431271 32.0078125,3.16650965 32.0078125,4.63243683 L32.0078125,19.5831254 Z" id="Shape"></path>
                <polygon id="Path" points="9 7 25 7 25 9 9 9"></polygon>
                <polygon id="Path" points="9 11 25 11 25 13 9 13"></polygon>
                <polygon id="Path" points="9 15 25 15 25 17 9 17"></polygon>
            </g>
        </g>
    </g>
</svg>