<?xml version="1.0" encoding="UTF-8"?>
<svg width="811px" height="590px" viewBox="0 0 811 590" version="1.1" xmlns="http://www.w3.org/2000/svg" xmlns:xlink="http://www.w3.org/1999/xlink">
    <title>Discuss talent requirements (2)</title>
    <g id="Desktop-/-Mobile" stroke="none" stroke-width="1" fill="none" fill-rule="evenodd">
        <g id="Landing-Page-" transform="translate(-1037.000000, -161.000000)">
            <g id="Discuss-talent-requirements-(2)" transform="translate(1037.000000, 161.000000)">
                <path d="M786.313079,590 L810.827905,356.492041 C811.319606,351.502555 810.757661,346.446542 809.142071,341.656635 L722.040684,85.5296721 C717.474885,72.0913224 705.112108,62.3119292 690.290823,60.4491877 L208.985414,0.309246181 C195.498748,-1.35391592 182.152568,3.76862335 173.723401,13.8141224 L8.37125098,210.865568 C2.47083441,217.917375 -0.549616934,226.831924 0.0825705559,235.812999 L22.560348,589.467788 L786.313079,590 Z" id="Path" fill="#FFFFFF" fill-rule="nonzero"></path>
                <path d="M90.3075196,470 L35.6924804,470 C34.7160494,470 34,469.307692 34,468.5 C34,467.634615 34.7811448,467 35.6924804,467 L90.3075196,467 C91.2839506,467 92,467.692308 92,468.5 C92,469.307692 91.2188552,470 90.3075196,470 Z" id="Path" fill="#61656D" fill-rule="nonzero"></path>
                <polygon id="Path" fill="#61656D" fill-rule="nonzero" points="88.6160338 470 98 581 96.1097046 581 82 470"></polygon>
                <polygon id="Path" fill="#61656D" fill-rule="nonzero" points="37.4514768 470 28 581 29.8902954 581 44 470"></polygon>
                <polygon id="Path" fill="#3F4249" fill-rule="nonzero" points="36.8552036 470 36.60181 472.139603 39.6425339 472.139603 29 581 29.760181 581 43 470"></polygon>
                <polygon id="Path" fill="#3F4249" fill-rule="nonzero" points="91.1814346 512.53271 89.4936709 512.53271 82 470 88.6160338 470 98 581 97.0548523 581"></polygon>
                <polygon id="Path" fill="#3F4249" fill-rule="nonzero" points="59 470 60.5714286 581 62.5714286 581 66 470"></polygon>
                <path d="M71,439 C71,439 74.9452736,407.309429 84,390" id="Path" stroke="#868A91" stroke-width="0.5543"></path>
                <path d="M64,383 C64,383 70.9847645,408.423831 69.881907,426" id="Path" stroke="#868A91" stroke-width="0.5543"></path>
                <path d="M83,390 C83,390 83.069165,372.971421 98.9771218,372.00021 C98.9771218,371.935462 100.291257,386.892123 83,390 Z" id="Path" fill="#017EFC" fill-rule="nonzero"></path>
                <path d="M48,385.995955 C48,385.995955 43.9161677,370.351262 26,374.794355 C26,374.794355 29.4251497,386.246271 48,385.995955 Z" id="Path" fill="#017EFC" fill-rule="nonzero"></path>
                <path d="M67.7813758,393 C67.7813758,393 73.4695889,378.537196 60.2673166,371.000242 C60.2673166,370.932341 54.4386538,385.191444 67.7813758,393 Z" id="Path" fill="#017EFC" fill-rule="nonzero"></path>
                <path d="M48,387 C48,387 65,405.557252 65,438" id="Path" stroke="#868A91" stroke-width="0.5543"></path>
                <path d="M77,383 C73.036036,397.666667 71.3063063,400.866667 69,438" id="Path" stroke="#868A91" stroke-width="0.5543"></path>
                <path d="M34,363 C41.0532292,366.256021 63.3029613,389.959857 59.5839859,436" id="Path" stroke="#868A91" stroke-width="0.5543"></path>
                <path d="M57.4986687,438 C57.4986687,438 62.3294225,406.48392 42,396" id="Path" stroke="#868A91" stroke-width="0.5543"></path>
                <path d="M73,434 C73,434 74.6545455,428.545455 80,424" id="Path" stroke="#868A91" stroke-width="0.5543"></path>
                <path d="M73,422 C73,422 84.9766537,412.5625 91,411" id="Path" stroke="#868A91" stroke-width="0.5543"></path>
                <path d="M51,402.89528 C51,402.89528 46.6,385.566625 29,389.612226 C29,389.612226 32.0208955,404.378666 51,402.89528 Z" id="Path" fill="#017EFC" fill-rule="nonzero"></path>
                <path d="M51,402.89528 C51,402.89528 46.6,385.566625 29,389.612226 C29,389.612226 32.0208955,404.378666 51,402.89528 Z" id="Path" fill="#FFFFFF" fill-rule="nonzero" opacity="0.4"></path>
                <path d="M60,420.175356 C60,420.175356 57.1546392,407.686677 42,411.84957 C42.0618557,411.781326 47.0103093,424.270005 60,420.175356 Z" id="Path" fill="#017EFC" fill-rule="nonzero"></path>
                <path d="M71,413 C71,413 72.5714286,393.391304 93,391 C92.931677,391 93.9565217,410.198758 71,413 Z" id="Path" fill="#017EFC" fill-rule="nonzero"></path>
                <path d="M67,357 C67,357 66.1428571,425.667719 66,439" id="Path" stroke="#868A91" stroke-width="0.5543"></path>
                <path d="M69,408.993803 C69,408.993803 51,409.863392 51,391 C51,391 68.4352941,391.200674 69,408.993803 Z" id="Path" fill="#017EFC" fill-rule="nonzero"></path>
                <path d="M69,408.993803 C69,408.993803 51,409.863392 51,391 C51,391 68.4352941,391.200674 69,408.993803 Z" id="Path" fill="#FFFFFF" fill-rule="nonzero" opacity="0.4"></path>
                <path d="M86,414.900817 C86,414.900817 90.2975779,402.341372 104,405.513603 C103.937716,405.513603 101.695502,416.130866 86,414.900817 Z" id="Path" fill="#017EFC" fill-rule="nonzero"></path>
                <path d="M86,414.900817 C86,414.900817 90.2975779,402.341372 104,405.513603 C103.937716,405.513603 101.695502,416.130866 86,414.900817 Z" id="Path" fill="#FFFFFF" fill-rule="nonzero" opacity="0.4"></path>
                <polygon id="Path" fill="#868A91" fill-rule="nonzero" points="80 439 50 439 50 442 80 442"></polygon>
                <polygon id="Path" fill="#868A91" fill-rule="nonzero" points="75.3247423 466 52.6752577 466 51 442 77 442"></polygon>
                <polygon id="Path" fill="#868A91" fill-rule="nonzero" points="75.3247423 466 52.6752577 466 51 442 77 442"></polygon>
                <polygon id="Path" fill="#61656D" fill-rule="nonzero" points="78 439 73.3071429 439 73.3071429 442.672131 68.9357143 442.672131 51 442.672131 51.0642857 443.721311 68.9357143 443.721311 69 467 74.3357143 467 75.9428571 442.672131 78 442.672131"></polygon>
                <path d="M67.0150022,370 C67.0150022,370 58.7867476,357.740541 69.5163916,346 C69.4505655,346 76.5597775,357.935135 67.0150022,370 Z" id="Path" fill="#017EFC" fill-rule="nonzero"></path>
                <path d="M67.0150022,370 C67.0150022,370 58.7867476,357.740541 69.5163916,346 C69.4505655,346 76.5597775,357.935135 67.0150022,370 Z" id="Path" fill="#FFFFFF" fill-rule="nonzero" opacity="0.4"></path>
                <path d="M73.5168317,394 C73.5168317,394 64.4868315,374.79704 80.6353719,363 C80.6353719,363 91.7745692,380.367865 73.5168317,394 Z" id="Path" fill="#017EFC" fill-rule="nonzero"></path>
                <path d="M73.5168317,394 C73.5168317,394 64.4868315,374.79704 80.6353719,363 C80.6353719,363 91.7745692,380.367865 73.5168317,394 Z" id="Path" fill="#FFFFFF" fill-rule="nonzero" opacity="0.4"></path>
                <path d="M76,427.728953 C76,427.728953 78.2211538,419.505761 90,421.24034 C90,421.24034 88.0480769,429.59202 76,427.728953 Z" id="Path" fill="#017EFC" fill-rule="nonzero"></path>
                <path d="M61.1599876,430 C61.1599876,430 58.6337568,413.891304 73.6581822,412 C73.6581822,412 77.2480892,426.021739 61.1599876,430 Z" id="Path" fill="#017EFC" fill-rule="nonzero"></path>
                <path d="M61.1599876,430 C61.1599876,430 58.6337568,413.891304 73.6581822,412 C73.6581822,412 77.2480892,426.021739 61.1599876,430 Z" id="Path" fill="#FFFFFF" fill-rule="nonzero" opacity="0.4"></path>
                <path d="M31,362.029555 C31,362.029555 39.3947476,361.076521 40.9996258,369.994193 C41.0613519,369.926119 33.4690434,370.947227 31,362.029555 Z" id="Path" fill="#017EFC" fill-rule="nonzero"></path>
                <path d="M31,362.029555 C31,362.029555 39.3947476,361.076521 40.9996258,369.994193 C41.0613519,369.926119 33.4690434,370.947227 31,362.029555 Z" id="Path" fill="#FFFFFF" fill-rule="nonzero" opacity="0.3"></path>
                <path d="M52.1654587,361 C52.1654587,361 40.7258422,372.478261 51.8946986,385 C51.8946986,385 63.198935,372.73913 52.1654587,361 Z" id="Path" fill="#017EFC" fill-rule="nonzero"></path>
                <path d="M52.1654587,361 C52.1654587,361 40.7258422,372.478261 51.8946986,385 C51.8946986,385 63.198935,372.73913 52.1654587,361 Z" id="Path" fill="#FFFFFF" fill-rule="nonzero" opacity="0.4"></path>
                <path d="M688,402 L733.742739,402 C735.004149,402 736,401.338235 736,400.5 C736,399.661765 735.004149,399 733.742739,399 L688,399 L688,402 Z" id="Path" fill="#B2B6BB" fill-rule="nonzero"></path>
                <polygon id="Path" fill="#B2B6BB" fill-rule="nonzero" points="728 401 681 401 681 541 728 541"></polygon>
                <polygon id="Path" fill="#DADDDF" fill-rule="nonzero" points="683 401 486 401 486 541 683 541"></polygon>
                <path d="M675,530 L492,530 L492,420 L675,420.130952 L675,530 Z M493.048714,529.017857 L674.01683,529.017857 L674.01683,421.178571 L493.048714,421.178571 L493.048714,529.017857 Z" id="Shape" fill="#B2B6BB" fill-rule="nonzero"></path>
                <path d="M481.216703,402 L686.783297,402 C688.022043,402 689,401.338235 689,400.5 C689,399.661765 688.022043,399 686.783297,399 L481.216703,399 C479.977957,399 479,399.661765 479,400.5 C479,401.338235 479.977957,402 481.216703,402 Z" id="Path" fill="#DADDDF" fill-rule="nonzero"></path>
                <polygon id="Path" fill="#B2B6BB" fill-rule="nonzero" points="492 474 675 474 675 473 492 473"></polygon>
                <path d="M582.5,440 C584.434906,440 586,438.432925 586,436.5 C586,434.567075 584.434906,433 582.5,433 C580.565094,433 579,434.567075 579,436.5 C579,438.432925 580.565094,440 582.5,440 Z" id="Path" fill="#B2B6BB" fill-rule="nonzero"></path>
                <path d="M584.542857,436.5 C584.542857,434.981132 583.9,433.660377 583,433.198113 C583.214286,433.066038 583.471429,433 583.728571,433 C584.971429,433 586,434.584906 586,436.5 C586,438.415094 584.971429,440 583.728571,440 C583.471429,440 583.214286,439.933962 583,439.801887 C583.857143,439.339623 584.542857,438.018868 584.542857,436.5 Z" id="Path" fill="#000000" fill-rule="nonzero" opacity="0.15"></path>
                <path d="M582.5,494 C584.434906,494 586,492.432925 586,490.5 C586,488.567075 584.434906,487 582.5,487 C580.565094,487 579,488.567075 579,490.5 C579,492.432925 580.565094,494 582.5,494 Z" id="Path" fill="#B2B6BB" fill-rule="nonzero"></path>
                <path d="M584.542857,490.5 C584.542857,488.981132 583.9,487.660377 583,487.198113 C583.214286,487.066038 583.471429,487 583.728571,487 C584.971429,487 586,488.584906 586,490.5 C586,492.415094 584.971429,494 583.728571,494 C583.471429,494 583.214286,493.933962 583,493.801887 C583.857143,493.40566 584.542857,492.084906 584.542857,490.5 Z" id="Path" fill="#000000" fill-rule="nonzero" opacity="0.15"></path>
                <polygon id="Path" fill="#B2B6BB" fill-rule="nonzero" points="689 408 681.810489 402 484 402 484 404.75"></polygon>
                <path d="M717.565336,541 L720.961336,579.283912 C721.212892,580.706625 720.20667,582 718.823114,582 C717.87978,582 717.062224,581.417981 716.74778,580.512618 L707,541 L717.565336,541 L717.565336,541 Z" id="Path" fill="#DADDDF" fill-rule="nonzero"></path>
                <path d="M716.33012,563.416799 L712.259933,562.377179 L707,541 L717.582485,541 L720.963871,579.465927 C721.151725,580.570523 720.588161,581.610143 719.711505,582 L716.33012,563.416799 Z" id="Path" fill="#B2B6BB" fill-rule="nonzero"></path>
                <path d="M678.565336,541 L681.961336,579.283912 C682.212892,580.706625 681.20667,582 679.823114,582 C678.87978,582 678.062224,581.417981 677.74778,580.512618 L668,541 L678.565336,541 L678.565336,541 Z" id="Path" fill="#DADDDF" fill-rule="nonzero"></path>
                <path d="M675.013244,545.223455 L669.001892,544.053883 L668,541 L678.582485,541 L681.963871,579.465927 C682.151725,580.570523 681.588161,581.610143 680.711505,582 L675.013244,545.223455 Z" id="Path" fill="#B2B6BB" fill-rule="nonzero"></path>
                <path d="M534.434664,541 L531.038664,579.283912 C530.787108,580.706625 531.79333,582 533.176886,582 C534.12022,582 534.937776,581.417981 535.25222,580.512618 L545,541 L534.434664,541 L534.434664,541 Z" id="Path" fill="#DADDDF" fill-rule="nonzero"></path>
                <path d="M535.780612,561.370662 L532,560.4653 L533.790816,541 L545,541 L534.719388,580.512618 C534.387755,581.417981 533.52551,582 532.530612,582 C532.464286,582 532.464286,582 532.397959,582 L535.780612,561.370662 Z" id="Path" fill="#B2B6BB" fill-rule="nonzero"></path>
                <path d="M493.434664,541 L490.038664,579.283912 C489.787108,580.706625 490.79333,582 492.176886,582 C493.12022,582 493.937776,581.417981 494.25222,580.512618 L504,541 L493.434664,541 L493.434664,541 Z" id="Path" fill="#DADDDF" fill-rule="nonzero"></path>
                <path d="M496.953316,544.362776 L491.889474,543.457413 L492.436842,541 L504,541 L493.394737,580.512618 C493.052632,581.417981 492.163842,582 491.137526,582 C491.069105,582 491.068421,582 491,582 L496.953316,544.362776 Z" id="Path" fill="#B2B6BB" fill-rule="nonzero"></path>
                <polygon id="Path" fill="#FFFFFF" fill-rule="nonzero" points="264 47 264 124 362 124 362 47"></polygon>
                <polygon id="Path" fill="#DDDDDD" fill-rule="nonzero" points="274 57 274 114 351 114 351 57"></polygon>
                <polygon id="Path" fill="#DADDDF" fill-rule="nonzero" points="364 47 362 47 362 124 364 124"></polygon>
                <path d="M314,89 C320.627097,89 326,83.1800538 326,76 C326,68.8206452 320.627097,63 314,63 C307.372258,63 302,68.8206452 302,76 C302,83.1800538 307.372258,89 314,89 Z" id="Path" fill="#017EFC" fill-rule="nonzero"></path>
                <polygon id="Path" fill="#000000" fill-rule="nonzero" opacity="0.2" points="283 108 302 94.9664083 283.188119 82"></polygon>
                <polygon id="Path" fill="#000000" fill-rule="nonzero" opacity="0.2" points="317 78 317 104 343 104 343 78"></polygon>
                <path d="M508.358108,580 L229.642548,580 C224.329307,580 220,575.680875 220,570.38013 L220,176.61987 C220,171.319125 224.329307,167 229.642548,167 L508.358108,167 C513.670693,167 518,171.319125 518,176.61987 L518,570.314689 C518,575.680875 513.670693,580 508.358108,580 Z" id="Path" fill="#017EFC" fill-rule="nonzero"></path>
                <path d="M508.358108,580 L229.642548,580 C224.329307,580 220,575.680875 220,570.38013 L220,176.61987 C220,171.319125 224.329307,167 229.642548,167 L508.358108,167 C513.670693,167 518,171.319125 518,176.61987 L518,570.314689 C518,575.680875 513.670693,580 508.358108,580 Z" id="Path" fill="#FFFFFF" fill-rule="nonzero" opacity="0.5"></path>
                <path d="M500.357473,580 L221.642527,580 C216.329298,580 212,575.680875 212,570.38013 L212,176.61987 C212,171.319125 216.329298,167 221.642527,167 L500.357473,167 C505.670702,167 510,171.319125 510,176.61987 L510,570.314689 C510,575.680875 505.670702,580 500.357473,580 Z" id="Path" fill="#017EFC" fill-rule="nonzero"></path>
                <path d="M500.357473,580 L221.642527,580 C216.329298,580 212,575.680875 212,570.38013 L212,176.61987 C212,171.319125 216.329298,167 221.642527,167 L500.357473,167 C505.670702,167 510,171.319125 510,176.61987 L510,570.314689 C510,575.680875 505.670702,580 500.357473,580 Z" id="Path" fill="#FFFFFF" fill-rule="nonzero" opacity="0.7"></path>
                <path d="M457.868421,237 L368.131579,237 C365.302632,237 363,234.75641 363,232 C363,229.24359 365.302632,227 368.131579,227 L457.868421,227 C460.697368,227 463,229.24359 463,232 C462.934211,234.75641 460.697368,237 457.868421,237 Z" id="Path" fill="#FFFFFF" fill-rule="nonzero"></path>
                <path d="M460.300856,263 L365.699144,263 C364.18499,263 363,261.682927 363,260 C363,258.317073 364.18499,257 365.699144,257 L460.300856,257 C461.81501,257 463,258.317073 463,260 C463,261.682927 461.81501,263 460.300856,263 Z" id="Path" fill="#FFFFFF" fill-rule="nonzero"></path>
                <path d="M421.35768,284 L366.64232,284 C365.160043,284 364,282.682927 364,281 C364,279.317073 365.160043,278 366.64232,278 L421.35768,278 C422.839957,278 424,279.317073 424,281 C424,282.682927 422.77551,284 421.35768,284 Z" id="Path" fill="#FFFFFF" fill-rule="nonzero"></path>
                <path d="M457.868421,372 L368.131579,372 C365.302632,372 363,369.75641 363,367 C363,364.24359 365.302632,362 368.131579,362 L457.868421,362 C460.697368,362 463,364.24359 463,367 C462.934211,369.75641 460.697368,372 457.868421,372 Z" id="Path" fill="#FFFFFF" fill-rule="nonzero"></path>
                <path d="M460.300856,398 L365.699144,398 C364.18499,398 363,396.682927 363,395 C363,393.317073 364.18499,392 365.699144,392 L460.300856,392 C461.81501,392 463,393.317073 463,395 C463,396.609756 461.81501,398 460.300856,398 Z" id="Path" fill="#FFFFFF" fill-rule="nonzero"></path>
                <path d="M421.35768,420 L366.64232,420 C365.160043,420 364,418.682927 364,417 C364,415.317073 365.160043,414 366.64232,414 L421.35768,414 C422.839957,414 424,415.317073 424,417 C424,418.609756 422.77551,420 421.35768,420 Z" id="Path" fill="#FFFFFF" fill-rule="nonzero"></path>
                <path d="M302.032776,354 L294.931426,354 L294.931426,354.722628 C278.427363,358.007299 266,372.525547 266,390 C266,407.408759 278.427363,421.992701 294.931426,425.277372 L294.931426,426 L302.032776,426 C321.890255,426 338,409.905109 338,390.065693 C338.065553,370.094891 321.956009,354 302.032776,354 Z" id="Path" fill="#017EFC" fill-rule="nonzero"></path>
                <path d="M296,426 C315.882267,426 332,409.882267 332,390 C332,370.117733 315.882267,354 296,354 C276.117733,354 260,370.117733 260,390 C260,409.882267 276.117733,426 296,426 Z" id="Path" fill="#017EFC" fill-rule="nonzero"></path>
                <path d="M296,426 C315.882267,426 332,409.882267 332,390 C332,370.117733 315.882267,354 296,354 C276.117733,354 260,370.117733 260,390 C260,409.882267 276.117733,426 296,426 Z" id="Path" fill="#FFFFFF" fill-rule="nonzero" opacity="0.4"></path>
                <path d="M287.767857,406.55025 L275.497449,394.223765 C274.834184,393.557468 274.834184,392.491394 275.497449,391.825097 L278.681122,388.626874 C279.344388,387.960577 280.405612,387.960577 281.068878,388.626874 L288.961735,396.555802 L307.931122,377.499722 C308.594388,376.833426 309.655612,376.833426 310.318878,377.499722 L313.502551,380.697946 C314.165816,381.364242 314.165816,382.430316 313.502551,383.096613 L290.155612,406.55025 C289.492347,407.149917 288.431122,407.149917 287.767857,406.55025 Z" id="Path" fill="#FFFFFF" fill-rule="nonzero"></path>
                <path d="M426.328947,535 L305.605263,535 C303.039474,535 301,532.946688 301,530.363489 L301,498.636511 C301,496.053312 303.039474,494 305.605263,494 L426.394737,494 C428.960526,494 431,496.053312 431,498.636511 L431,530.363489 C430.934211,532.946688 428.894737,535 426.328947,535 Z" id="Path" fill="#017EFC" fill-rule="nonzero"></path>
                <path d="M426.328947,535 L305.605263,535 C303.039474,535 301,532.946688 301,530.363489 L301,498.636511 C301,496.053312 303.039474,494 305.605263,494 L426.394737,494 C428.960526,494 431,496.053312 431,498.636511 L431,530.363489 C430.934211,532.946688 428.894737,535 426.328947,535 Z" id="Path" fill="#FFFFFF" fill-rule="nonzero" opacity="0.5"></path>
                <path d="M421.394737,535 L300.605263,535 C298.039474,535 296,532.946688 296,530.363489 L296,498.636511 C296,496.053312 298.039474,494 300.605263,494 L421.394737,494 C423.960526,494 426,496.053312 426,498.636511 L426,530.363489 C426,532.946688 423.894737,535 421.394737,535 Z" id="Path" fill="#FFFFFF" fill-rule="nonzero"></path>
                <path d="M473.691211,198.599883 L462.467933,187.15065 L451.244656,198.599883 C450.410926,199.450398 449,198.86158 449,197.61852 L449,167 L476,167 L476,197.61852 C476,198.86158 474.524941,199.450398 473.691211,198.599883 Z" id="Path" fill="#3F4249" fill-rule="nonzero"></path>
                <polygon id="Path" fill="#FC9D9D" fill-rule="nonzero" points="674.695402 492 696 518.228873 680.827586 531 663 513.285211"></polygon>
                <path d="M692.739469,512.316853 L706.458625,523.215473 C707.990066,524.404414 708.436736,526.584138 707.543395,528.301496 L681.189854,578.699358 C680.615563,579.822246 679.339363,580.284612 678.190782,579.822246 C675.766001,578.897515 674.489801,576.189373 675.191711,573.613335 L675.510761,572.424395 C677.042202,566.942059 677.807922,561.261566 677.871732,555.581073 L678.254592,528.962018 C678.254592,527.310712 679.403173,525.923615 680.934614,525.527302 C685.975606,524.338361 689.740397,519.978913 690.314688,514.694734 L690.442308,513.373689 C690.569928,512.184748 691.846128,511.590278 692.739469,512.316853 Z" id="Path" fill="#3F4249" fill-rule="nonzero"></path>
                <path d="M685,504.892572 L614.95215,421.998772 L615.810418,348.300798 L616.602665,306.065684 L576,306 L580.42338,430.077962 C580.4894,435.398404 582.66808,440.456108 586.563295,444.068754 L669.815263,520 L685,504.892572 Z" id="Path" fill="#017EFC" fill-rule="nonzero"></path>
                <path d="M685,506.826888 L614.95215,423.933088 L616.404603,308.065684 L576,308 L580.42338,432.077962 C580.4894,437.398404 582.66808,442.456108 586.563295,446.068754 L669.815263,522 L685,506.826888 Z" id="Path" fill="#FFFFFF" fill-rule="nonzero" opacity="0.2"></path>
                <polygon id="Path" fill="#FC9D9D" fill-rule="nonzero" points="659 544 639 544.398524 640.032258 560.273063 658.483871 562"></polygon>
                <path d="M650.106264,553 C644.406226,553 639.80499,557.479638 639.598964,563.045249 L639.530289,565.624434 C639.461614,566.642534 639.324264,567.660633 639.049563,568.678733 L636.096531,579.334842 C635.615805,581.167421 636.989308,583 638.912213,583 L663.08587,583 C665.146125,583 666.588304,580.963801 665.764202,579.063348 L661.575017,568.81448 C661.025615,567.38914 660.68224,565.895928 660.613565,564.334842 L660.544889,563.113122 C660.476214,557.479638 655.806303,553 650.106264,553 Z" id="Path" fill="#3F4249" fill-rule="nonzero"></path>
                <path d="M659.811321,308 L661,551 L640.396226,551 L621.839623,349.145288 C621.773585,347.964083 620.783019,347.110991 619.660377,347.110991 C618.471698,347.110991 617.54717,348.029706 617.481132,349.21091 L616.95283,367.847691 L612,308 L659.811321,308 Z" id="Path" fill="#017EFC" fill-rule="nonzero"></path>
                <path d="M659.811321,308 L661,551 L640.396226,551 L621.839623,349.145288 C621.773585,347.964083 620.783019,347.110991 619.660377,347.110991 C618.471698,347.110991 617.54717,348.029706 617.481132,349.21091 L616.95283,367.847691 L612,308 L659.811321,308 Z" id="Path" fill="#FFFFFF" fill-rule="nonzero" opacity="0.2"></path>
                <polygon id="Path" fill="#000000" fill-rule="nonzero" opacity="0.4" points="577.316212 315 658 315 657.934189 307 576 307"></polygon>
                <polygon id="Path" fill="#3F4249" fill-rule="nonzero" points="636 316 638 316 638 308 636 308"></polygon>
                <polygon id="Path" fill="#3F4249" fill-rule="nonzero" points="599 316 601 316 601 308 599 308"></polygon>
                <path d="M654.507935,561.997547 C654.647716,561.997547 654.787497,561.937016 654.927278,561.815952 C655.067059,561.634357 654.997168,561.331698 654.787497,561.210635 C654.717606,561.210635 649.965055,558.486707 645.212503,561.210635 C645.002832,561.331698 644.932941,561.573825 645.072722,561.815952 C645.212503,561.997547 645.492065,562.058079 645.771627,561.937016 C649.965055,559.515746 654.228373,561.937016 654.228373,561.937016 C654.368154,561.997547 654.438044,561.997547 654.507935,561.997547 Z" id="Path" fill="#3F4249" fill-rule="nonzero"></path>
                <path d="M654.507935,565.997547 C654.647716,565.997547 654.787497,565.937016 654.927278,565.815952 C655.067059,565.634357 654.997168,565.331698 654.787497,565.210635 C654.717606,565.210635 649.965055,562.486707 645.212503,565.210635 C645.002832,565.331698 644.932941,565.573825 645.072722,565.815952 C645.212503,565.997547 645.492065,566.058079 645.771627,565.937016 C649.965055,563.515746 654.228373,565.937016 654.228373,565.937016 C654.368154,565.997547 654.438044,565.997547 654.507935,565.997547 Z" id="Path" fill="#3F4249" fill-rule="nonzero"></path>
                <path d="M654.507935,567.997547 C654.647716,567.997547 654.787497,567.937016 654.927278,567.815952 C655.067059,567.634357 654.997168,567.331698 654.787497,567.210635 C654.717606,567.210635 649.965055,564.486707 645.212503,567.210635 C645.002832,567.331698 644.932941,567.573825 645.072722,567.815952 C645.212503,567.997547 645.492065,568.058079 645.771627,567.937016 C649.965055,565.515746 654.228373,567.937016 654.228373,567.937016 C654.368154,567.937016 654.438044,567.997547 654.507935,567.997547 Z" id="Path" fill="#3F4249" fill-rule="nonzero"></path>
                <path d="M682.506076,538 C682.712054,538 682.918033,537.752003 682.986693,537.504005 C683.055352,537.173342 682.849374,536.925345 682.574735,536.842679 L677.562584,536.016022 C677.287946,535.933356 677.081967,536.181353 677.013307,536.512016 C676.944648,536.842679 677.150626,537.090677 677.425265,537.173342 L682.437416,538 C682.437416,538 682.506076,538 682.506076,538 Z" id="Path" fill="#3F4249" fill-rule="nonzero"></path>
                <path d="M682.506076,541 C682.712054,541 682.918033,540.752003 682.986693,540.504005 C683.055352,540.173342 682.849374,539.925345 682.574735,539.842679 L677.562584,539.016022 C677.287946,538.933356 677.081967,539.181353 677.013307,539.512016 C676.944648,539.842679 677.150626,540.090677 677.425265,540.173342 L682.437416,541 C682.506076,541 682.506076,541 682.506076,541 Z" id="Path" fill="#3F4249" fill-rule="nonzero"></path>
                <path d="M682.506076,545 C682.712054,545 682.918033,544.752003 682.986693,544.504005 C683.055352,544.173342 682.849374,543.925345 682.574735,543.842679 L677.562584,543.016022 C677.287946,542.933356 677.081967,543.181353 677.013307,543.512016 C676.944648,543.842679 677.150626,544.090677 677.425265,544.173342 L682.437416,545 C682.506076,545 682.506076,545 682.506076,545 Z" id="Path" fill="#3F4249" fill-rule="nonzero"></path>
                <path d="M707.520111,531.105322 L679.822652,581.694423 C679.219075,582.821572 677.877794,583.285692 676.670641,582.821572 C676.402384,582.755269 676.201192,582.622663 676,582.490057 L706.380021,526 C707.989559,527.193452 708.459007,529.315144 707.520111,531.105322 Z" id="Path" fill="#000000" fill-rule="nonzero" opacity="0.5"></path>
                <path d="M663.110856,581 L638.937174,581 C637.082943,581 635.709438,579.557692 636.052815,578 L665.92654,578 C666.338592,579.5 664.965087,581 663.110856,581 Z" id="Path" fill="#000000" fill-rule="nonzero" opacity="0.5"></path>
                <g id="Group" opacity="0.2" transform="translate(627.000000, 440.000000)" fill="#000000" fill-rule="nonzero">
                    <polygon id="Path" points="4.73333333 48.5714286 5.73333333 49.6753247 1.2 1.49350649 0.2 0.38961039"></polygon>
                </g>
                <path d="M595,307 C600.955497,229 607.5,181.195652 607.5,181.195652 L608.089005,181 C608.089005,181 619.410995,196.065217 634.070681,184.326087 L636.034031,181.913043 L637.735602,182.369565 L637.670157,182.369565 C637.670157,182.369565 638.390052,247.847826 645,306.934783 L595,307 Z" id="Path" fill="#FFFFFF" fill-rule="nonzero"></path>
                <path d="M689,240.40146 L661.762973,246.708029 L659.298987,238.49635 L658.23348,344 L642.317467,344 C639.320728,344 636.856742,341.766423 636.590366,338.810219 C629.531381,255.905109 635.058699,182 635.058699,182 L646.64609,184.956204 L667.956233,190.343066 C674.349276,191.919708 679.343841,196.978102 680.742319,203.416058 L689,240.40146 Z" id="Path" fill="#21252B" fill-rule="nonzero"></path>
                <path d="M606,154.083567 L606.200269,184.425505 C606.200269,185.076619 606.400538,185.662622 606.801077,186.248625 L607.068102,186.639294 C614.745087,194.127112 626.827995,193.541108 635.773351,186.313737 C636.707941,185.597511 637.108479,184.425505 636.974966,183.31861 L632.168506,152 L606,154.083567 Z" id="Path" fill="#FC9D9D" fill-rule="nonzero"></path>
                <path d="M632.357081,139.890887 C632.357081,139.890887 637.442673,174.572641 619.007401,175.959911 C601.017118,177.347181 600.508559,142.269064 600.508559,142.269064 L600,132.227871 L623.139445,128 L628.987876,131.104843 L632.357081,139.890887 Z" id="Path" fill="#FC9D9D" fill-rule="nonzero"></path>
                <path d="M634,172.949255 L632.633868,163 C630.942467,169.42556 627.364503,174.745648 621.184384,175.85112 L621.249438,175.85112 C620.79406,175.920212 620.338683,175.989304 619.883306,176.058397 C614.93921,176.472949 610.905869,174.054727 607.783283,168.872824 C607.653175,168.665548 607.392959,168.596456 607.197798,168.73464 C607.002636,168.872824 606.937582,169.149192 607.06769,169.356468 C610.320384,174.81474 614.678995,177.371145 619.94836,176.956593 C621.054276,176.887501 622.160192,176.680225 623.201054,176.334765 C626.583857,176.749317 630.422036,175.85112 634,172.949255 Z" id="Path" fill="#000000" fill-rule="nonzero" opacity="0.15"></path>
                <path d="M629,133.234562 C629,133.234562 635.242819,128.998034 638.228514,136.220966 C640.671356,142.332678 636.532096,149 636.532096,149 L632.93569,148.652744 C631.442842,148.583292 630.357134,147.88878 630.221421,146.360852 L629,133.234562 Z" id="Path" fill="#21252B" fill-rule="nonzero"></path>
                <path d="M633.965308,128.807716 C634.496578,135.315717 628.785429,137.007797 626.461124,137.203038 L607.468234,138.764958 C605.940834,138.895118 604.745478,140.196718 604.878295,141.693558 L605.210339,147.615839 C605.276747,148.3968 604.679069,149.11268 603.882164,149.24284 L602.686808,149.373 L601.358634,151 C593.920859,149.24284 590.799649,128.547396 604.479843,124.317195 C605.940834,123.861635 607.2026,122.820355 607.866687,121.518755 C609.858948,117.483794 618.027219,116.442514 622.144558,120.933035 C623.007872,121.909235 624.070411,122.364795 625.398585,122.299715 C630.445647,122.169555 633.633265,125.228315 633.965308,128.807716 Z" id="Path" fill="#21252B" fill-rule="nonzero"></path>
                <path d="M604.013799,151.658563 C603.732028,149.353232 600.63254,148.169413 598.660139,149.664763 L598.589696,149.727069 C595.137994,152.343932 597.321724,160.755275 605,159.945294 L604.013799,151.658563 Z" id="Path" fill="#FC9D9D" fill-rule="nonzero"></path>
                <path d="M637.843394,147.46602 C637.843394,147.46602 637.775247,147.46602 637.775247,147.404055 C635.594523,146.226728 632.868619,147.775843 633.004915,150.068533 L633.4138,158 C640.773741,157.752142 641.523365,149.634781 637.843394,147.46602 Z" id="Path" fill="#FC9D9D" fill-rule="nonzero"></path>
                <path d="M602.994404,153.18059 C603.045542,153.55509 602.738711,153.92959 602.380741,153.992007 C602.022771,154.054424 601.664801,153.74234 601.613663,153.36784 L601,148 L602.789849,148.062417 L602.994404,153.18059 Z" id="Path" fill="#21252B" fill-rule="nonzero"></path>
                <path d="M634.994404,150.18059 C635.045542,150.55509 634.738711,150.92959 634.380741,150.992007 C634.022771,151.054424 633.664801,150.74234 633.613663,150.36784 L633,145 L634.789849,145.062417 L634.994404,150.18059 Z" id="Path" fill="#21252B" fill-rule="nonzero"></path>
                <path d="M627.484241,136.973589 C626.918816,137.033013 626.494747,136.973589 626.424069,136.973589 C626.212034,136.973589 626,136.795319 626,136.617048 C626,136.438777 626.212034,136.260506 626.424069,136.260506 C626.494747,136.260506 630.523401,136.438777 632.219677,134.180679 C632.361033,134.002408 632.573067,133.942984 632.785102,134.061831 C632.997136,134.180679 633.067814,134.35895 632.926458,134.53722 C631.654252,136.438777 628.968482,136.854742 627.484241,136.973589 Z" id="Path" fill="#FC9D9D" fill-rule="nonzero"></path>
                <path d="M611.5,157 C612.328,157 613,156.3286 613,155.5 C613,154.6714 612.328,154 611.5,154 C610.672,154 610,154.6714 610,155.5 C610,156.3286 610.672,157 611.5,157 Z" id="Path" fill="#21252B" fill-rule="nonzero"></path>
                <path d="M611.5,156 C611.78,156 612,155.776 612,155.5 C612,155.224 611.78,155 611.5,155 C611.22,155 611,155.224 611,155.5 C611,155.776 611.22,156 611.5,156 Z" id="Path" fill="#FFFFFF" fill-rule="nonzero"></path>
                <path d="M625.5,157 C626.328,157 627,156.3286 627,155.5 C627,154.6714 626.328,154 625.5,154 C624.672,154 624,154.6714 624,155.5 C624,156.3286 624.672,157 625.5,157 Z" id="Path" fill="#21252B" fill-rule="nonzero"></path>
                <path d="M625.5,154 C625.78,154 626,153.776 626,153.5 C626,153.224 625.78,153 625.5,153 C625.22,153 625,153.224 625,153.5 C625,153.776 625.22,154 625.5,154 Z" id="Path" fill="#FFFFFF" fill-rule="nonzero"></path>
                <g id="Group" opacity="0.3" transform="translate(617.000000, 158.000000)" fill="#000000" fill-rule="nonzero">
                    <path d="M1.45714286,2.74285714 L2.31428571,2.65714286 C2.48571429,2.65714286 2.61428571,2.48571429 2.61428571,2.31428571 C2.61428571,2.14285714 2.44285714,2.01428571 2.27142857,2.01428571 L1.41428571,2.1 C1.07142857,2.14285714 0.728571429,1.84285714 0.728571429,1.5 C0.685714286,1.11428571 0.985714286,0.814285714 1.32857143,0.814285714 C1.5,0.814285714 1.62857143,0.642857143 1.62857143,0.471428571 C1.62857143,0.3 1.45714286,0.171428571 1.28571429,0.171428571 C0.6,0.214285714 0.0428571429,0.814285714 0.0857142857,1.54285714 C0.128571429,2.27142857 0.771428571,2.82857143 1.45714286,2.74285714 Z" id="Path"></path>
                </g>
                <path d="M630.349505,149.010434 L623.328964,149.380555 L622.362834,149.442241 L616.179605,149.750675 L616.115197,149.750675 L608.192935,150.182482 C606.904762,150.244169 605.938632,151.292843 606.003041,152.526577 L606.131858,154.253805 C606.325084,157.584888 609.35229,160.17573 612.830356,159.99067 C616.308422,159.80561 619.013585,156.906334 618.820359,153.575251 L618.691542,151.848023 C618.691542,151.35453 618.433907,150.861036 618.111864,150.552602 L620.559392,150.429229 C620.301758,150.799349 620.108532,151.292843 620.17294,151.786337 L620.301758,153.513565 C620.494984,156.844648 623.522189,159.43549 627.000256,159.25043 C630.478322,159.065369 633.183484,156.166094 632.990259,152.835011 L632.861441,151.107783 C632.797033,149.874048 631.637677,148.887061 630.349505,149.010434 Z M617.789821,151.90971 L617.918638,153.636938 C618.111864,156.474527 615.793153,158.941996 612.830356,159.065369 C609.867559,159.25043 607.291214,157.029708 607.162397,154.192119 L607.033579,152.46489 C606.969171,151.72465 607.613257,151.107783 608.386161,151.046096 L616.308422,150.614289 L616.372831,150.614289 C617.081326,150.614289 617.725412,151.169469 617.789821,151.90971 Z M632.024129,152.835011 C632.217355,155.6726 629.898644,158.140069 626.935847,158.263442 C623.97305,158.448502 621.396705,156.22778 621.267887,153.390191 L621.13907,151.662963 C621.074661,150.922723 621.718748,150.305855 622.491651,150.244169 L623.457781,150.182482 L630.478322,149.812362 C631.251225,149.750675 631.895312,150.367542 631.95972,151.107783 L632.024129,152.835011 Z" id="Shape" fill="#21252B" fill-rule="nonzero"></path>
                <path d="M616.259434,165.469578 L624.64572,165 C624.850264,165 625.054807,165.156526 624.986626,165.313052 C623.827546,168.600095 617.895782,168.965323 616.05489,165.88698 L616.05489,165.834805 C615.918528,165.678279 616.05489,165.469578 616.259434,165.469578 Z" id="Path" fill="#FFFFFF" fill-rule="nonzero"></path>
                <g id="Group" opacity="0.3" transform="translate(598.000000, 151.000000)" fill="#000000" fill-rule="nonzero">
                    <path d="M2.65,5.625 C2.45,5.625 2.3,5.475 2.25,5.175 L2.15,4.05 C2.05,2.85 1.85,1.95 1.45,1.5 C1.15,1.125 0.85,1.2 0.85,1.2 C0.65,1.275 0.45,1.05 0.45,0.75 C0.4,0.45 0.55,0.15 0.75,0.15 C0.8,0.15 1.35,-2.77555756e-17 1.9,0.6 C2.45,1.2 2.75,2.325 2.9,3.9 L3,5.025 C3,5.325 2.85,5.625 2.65,5.625 Z" id="Path"></path>
                </g>
                <g id="Group" opacity="0.3" transform="translate(636.000000, 149.000000)" fill="#000000" fill-rule="nonzero">
                    <path d="M0.72,5.73333333 C0.9,5.73333333 1.035,5.53333333 1.035,5.26666667 L1.035,4.2 C0.99,3.13333333 1.125,2.26666667 1.44,1.86666667 C1.665,1.53333333 1.935,1.46666667 1.935,1.53333333 C2.115,1.53333333 2.25,1.33333333 2.25,1.06666667 C2.25,0.8 2.115,0.6 1.935,0.6 C1.89,0.6 1.395,0.6 0.945,1.26666667 C0.495,1.93333333 0.315,2.93333333 0.36,4.33333333 L0.36,5.33333333 C0.36,5.53333333 0.495,5.73333333 0.72,5.73333333 C0.72,5.73333333 0.675,5.73333333 0.72,5.73333333 Z" id="Path"></path>
                </g>
                <g id="Group" opacity="0.3" transform="translate(662.000000, 188.000000)" fill="#000000" fill-rule="nonzero">
                    <path d="M12.3069767,15.9036145 L20.5116279,54.4036145 L27.6093023,52.6807229 L20.2511628,18.4216867 C18.8186047,9.14457831 14.455814,4.77108434 8.0744186,2.38554217 L0,0.265060241 C7.42325581,3.64457831 10.744186,9.01204819 12.3069767,15.9036145 Z" id="Path"></path>
                </g>
                <path d="M660,239.648626 L658.873239,345 L650,345 L651.197183,219.903444 C651.267606,218.853866 652.816901,218.65707 653.169014,219.641049 L660,239.648626 Z" id="Path" fill="#000000" fill-rule="nonzero" opacity="0.3"></path>
                <polygon id="Path" fill="#21252B" fill-rule="nonzero" points="636 181 640.277108 184.887255 646 207 636 201.965686 636.421687 184.186275"></polygon>
                <polygon id="Path" fill="#000000" fill-rule="nonzero" opacity="0.3" points="641.197802 184.265928 640.351648 184 646.153846 207.135734 636.120879 201.883657 636 206.736842 647 208"></polygon>
                <path d="M610.171975,309 L601,309 L604.911577,184 C604.911577,184 613.678906,246.599259 610.171975,309 Z" id="Path" fill="#000000" fill-rule="nonzero" opacity="0.15"></path>
                <path d="M611,307 L581,307 L581.751708,344 L602.047836,344 C605.738041,344 608.744875,341.276481 609.08656,337.755835 C609.906606,328.190305 610.52164,317.827648 611,307 Z" id="Path" fill="#000000" fill-rule="nonzero" opacity="0.15"></path>
                <path d="M480.907895,284 L546.631579,277 C552.618421,276.351852 557.881579,272.722222 560.578947,267.407407 L574,240.833333 L558.473684,207 L536.171053,255.222222 L479,270.842593 L480.907895,284 Z" id="Path" fill="#FC9D9D" fill-rule="nonzero"></path>
                <path d="M565.463002,241.246454 L552.093023,268.143617 C549.995772,272.342199 546.325581,275.491135 542,277 L545.735729,276.606383 C551.699789,275.950355 556.942918,272.276596 559.630021,266.897163 L573,240 L565.463002,241.246454 Z" id="Path" fill="#000000" fill-rule="nonzero" opacity="0.15"></path>
                <path d="M597.499669,344 L578.223384,344 L575.951768,229.470801 L566.930207,241.954088 L557,205.95731 C558.622583,200.012888 559.855746,197.040677 563.100912,194.002416 C564.983108,192.21909 567.77395,190.633911 570.49989,189.775272 L605.9371,180 C605.9371,180 609.247169,276.89408 604.184711,337.791381 C603.925097,341.291986 601.004448,344 597.499669,344 Z" id="Path" fill="#21252B" fill-rule="nonzero"></path>
                <polygon id="Path" fill="#21252B" fill-rule="nonzero" points="542 237.141221 566.554529 252 578 230.652672 560.232902 201 557.10536 202.557252"></polygon>
                <polygon id="Path" fill="#B2B6BB" fill-rule="nonzero" points="507.920312 142 483 183.626628 524 189"></polygon>
                <polygon id="Path" fill="#017EFC" fill-rule="nonzero" points="457.269184 510 443 508.225606 483.730816 182 498 183.708676"></polygon>
                <polygon id="Path" fill="#017EFC" fill-rule="nonzero" points="486.251825 514 472 512.290982 512.614355 186 527 187.709018"></polygon>
                <polygon id="Path" fill="#017EFC" fill-rule="nonzero" points="471.286585 513 457 511.291324 497.780488 185 512 186.774394"></polygon>
                <polygon id="Path" fill="#000000" fill-rule="nonzero" opacity="0.3" points="471.286585 513 457 511.291324 497.780488 185 512 186.774394"></polygon>
                <polygon id="Path" fill="#21252B" fill-rule="nonzero" points="503 152.737705 509.094675 143 513 154"></polygon>
                <path d="M469.333908,264 C471.006283,264 472.422014,265.405901 472.422014,267.213489 L472.422014,271.565088 L482.584913,272.636251 C483.356779,272.703198 484,273.439623 484,274.242995 C484,275.113315 483.356779,275.782791 482.584913,275.849739 L472.807303,276.519216 C472.678659,276.519216 472.550015,276.653111 472.550015,276.853954 C472.550015,276.98785 472.678659,277.121745 472.807303,277.188693 L482.455625,277.858169 C483.356135,277.925117 484,278.661542 484,279.598809 C484,280.536077 483.292456,281.339449 482.391946,281.339449 L472.678659,281.674187 L482.134015,281.339449 C483.163169,281.272501 484,282.142821 484,283.280931 C484,284.285147 483.291813,285.088519 482.326981,285.155466 L472.678659,286.092734 L479.882739,285.423257 C480.783249,285.356309 481.555115,286.092734 481.555115,287.030001 C481.555115,287.833374 481.040538,288.435903 480.268672,288.636746 L474.158068,289.908752 C472.550015,290.24349 470.942604,289.640961 469.849128,288.368955 C465.603866,283.280931 464.767035,275.983634 467.854498,270.025291 L468.947975,264.401686 C468.947975,264.133895 469.140941,264 469.333908,264 Z" id="Path" fill="#FC9D9D" fill-rule="nonzero"></path>
                <g id="Group" opacity="0.15" transform="translate(472.000000, 280.000000)" fill="#000000" fill-rule="nonzero">
                    <polygon id="Path" points="9.94714286 0.228666667 0.025 0.536666667 0.0578571429 1.46933333 9.98071429 1.16133333"></polygon>
                </g>
                <g id="Group" opacity="0.15" transform="translate(473.000000, 283.000000)" fill="#000000" fill-rule="nonzero">
                    <polygon id="Path" points="7.51333333 0.313333333 0.072 0.932666667 0.15 1.86333333 7.59066667 1.24333333"></polygon>
                </g>
                <path d="M472,271 L472,268 L470.185676,269.846154 C469.803714,270.215385 470.04244,270.815846 470.615385,270.862 L472,271 Z" id="Path" fill="#000000" fill-rule="nonzero" opacity="0.2"></path>
                <polygon id="Path" fill="#21252B" fill-rule="nonzero" points="605.518072 180 601.722892 183.60396 596 206 606 200.915842"></polygon>
                <polygon id="Path" fill="#000000" fill-rule="nonzero" opacity="0.3" points="600.802198 183.265928 601.648352 183 595.846154 206.135734 605.879121 200.883657 606 205.736842 595 207"></polygon>
                <path d="M693.748828,266.690006 L688.415046,242 L661.81118,248.253933 L667.144962,263.888766 L622.653411,273.790826 L620.181658,274.311987 C619.336059,274.507423 618.620551,274.572568 618.035136,273.986262 L617.059444,273.009085 C616.148798,272.292488 615.10806,271.771327 614.067322,271.445601 C611.465477,270.66386 609.253909,268.904941 607.88794,266.494571 L605.741418,262.716153 C605.611326,262.520718 605.416187,262.455573 605.221049,262.585863 L604.895818,262.716153 C603.334711,263.302459 602.554158,264.996233 603.009481,266.624861 L604.635634,271.836472 C604.830772,272.422778 604.505542,273.009085 603.985173,273.20452 L593.512746,277.504099 C591.301178,278.350986 592.081731,281.347662 594.098161,280.891646 C595.203945,280.631065 595.399084,280.56592 595.399084,280.56592 L593.317608,281.608242 C590.975947,282.71571 592.081731,285.907821 594.098161,285.451805 C596.049545,285.060935 598.716436,284.279193 598.716436,284.279193 L596.114591,285.321515 C594.228254,286.233547 595.008807,289.490804 597.545606,288.904498 C599.041667,288.513627 601.448374,287.79703 601.448374,287.79703 L599.887267,288.578772 C597.870837,289.230223 598.586344,292.35719 600.472682,291.966319 C602.098835,291.640593 617.514767,287.862175 625.450395,286.428983 L684.382186,280.044759 C690.756706,279.263018 695.114797,273.07423 693.748828,266.690006 Z" id="Path" fill="#FC9D9D" fill-rule="nonzero"></path>
                <path d="M686.136571,280.050085 L626.238443,286.435202 C618.17269,287.868596 602.503974,291.647542 600.851156,291.973314 C599.793353,292.168776 599.066113,291.256617 599,290.344457 C599,290.344457 599.462789,291.126308 600.652818,290.735383 C601.313945,290.53992 610.90029,287.086745 616.982661,284.806346 C620.288297,283.568415 623.660046,282.721409 627.097908,282.135021 C640.188228,279.984931 674.170168,274.316511 683.293724,272.296729 C685.938233,271.71034 688.847193,269.755713 688.186066,266.302537 L683.095386,243.694011 L690.301673,242 L695.722917,266.628308 C697.177397,273.07858 692.747844,279.268234 686.136571,280.050085 Z" id="Path" fill="#000000" fill-rule="nonzero" opacity="0.15"></path>
                <polygon id="Path" fill="#001B34" fill-rule="nonzero" points="623 272.942308 625.1875 286 629 285.596154 626.8125 272"></polygon>
                <path d="M626,284 C628.209836,284 630,282.20918 630,280 C630,277.79082 628.209836,276 626,276 C623.790164,276 622,277.79082 622,280 C622,282.20918 623.790164,284 626,284 Z" id="Path" fill="#017EFC" fill-rule="nonzero"></path>
                <path d="M625.5,284 C627.435294,284 629,282.433235 629,280.5 C629,278.567451 627.435294,277 625.5,277 C623.564706,277 622,278.567451 622,280.5 C622,282.433235 623.564706,284 625.5,284 Z" id="Path" fill="#FFFFFF" fill-rule="nonzero"></path>
                <path d="M627.860279,282 L626.230204,281.842608 L625.065865,280.426078 C625.019291,280.347381 624.972718,280.189989 625.019291,280.111293 C625.065865,280.032597 625.159012,279.953901 625.205586,280.032597 L626.323351,281.370431 L627.860279,281.527823 C627.953426,281.527823 628,281.606519 628,281.763912 C628,281.842608 627.953426,282 627.860279,282 Z" id="Path" fill="#001B34" fill-rule="nonzero"></path>
                <path d="M575,236.739638 L574.592233,225.647023 C574.592233,224.941712 573.572816,224.749354 573.23301,225.390546 L561,248.794042 L566.504854,252 L575,236.739638 Z" id="Path" fill="#000000" fill-rule="nonzero" opacity="0.3"></path>
                <polygon id="Path" fill="#000000" fill-rule="nonzero" opacity="0.2" points="650 344 651.785714 551 660 551 658.928571 344"></polygon>
                <polygon id="Path" fill="#017EFC" fill-rule="nonzero" points="660.931464 546 661 552 639.548287 552 639 546"></polygon>
                <polygon id="Path" fill="#000000" fill-rule="nonzero" opacity="0.2" points="652 546 652 552 660 552 659.930435 546"></polygon>
                <g id="Group" opacity="0.15" transform="translate(608.000000, 346.000000)" fill="#000000" fill-rule="nonzero">
                    <path d="M20.7508475,93.324 L7.30847458,77.154 L8.2220339,2.112 C8.35254237,0.33 9.91864407,0.066 10.3101695,0.066 C5.08983051,0.132 0.913559322,4.356 0.848305085,9.636 L0.130508475,80.982 L21.9254237,106.26 L20.7508475,93.324 Z" id="Path"></path>
                    <polygon id="Path" points="50.8983051 129.558 50.9635593 139.854 72.3669492 164.67 76.5432203 160.38"></polygon>
                </g>
                <path d="M469.376598,581.943606 L439.468102,578.230113 C436.09347,577.832239 433.645208,574.715558 434.042224,571.267315 L441.717856,509 L484,514.238677 L476.324368,576.505992 C475.861183,579.954235 472.751229,582.407793 469.376598,581.943606 Z" id="Path" fill="#3F4249" fill-rule="nonzero"></path>
                <path d="M472.309353,515 L464.798561,576.064254 C464.410072,579.380843 461.366906,581.786996 458,581.396809 L470.690647,582.957557 C473.992806,583.347744 477.035971,581.006622 477.489209,577.625002 L485,516.560748 L472.309353,515 Z" id="Path" fill="#000000" fill-rule="nonzero" opacity="0.4"></path>
                <polygon id="Path" fill="#B2B6BB" fill-rule="nonzero" points="484 514.419574 442.357737 509 441 520.581113 482.642263 526"></polygon>
                <path d="M22.2627947,583.9 L754.737205,583.9 C754.868603,583.9 755,583.7 755,583.5 C755,583.3 754.868603,583.1 754.737205,583.1 L22.2627947,583.1 C22.1313973,583.1 22,583.3 22,583.5 C22,583.7 22.1313973,583.9 22.2627947,583.9 Z" id="Path" fill="#B1B5BA" fill-rule="nonzero"></path>
                <path d="M109.386418,155.045113 C109.386418,155.045113 98.5577735,159.231579 100.736708,173.557143 C101.595076,178.921053 96.3128107,179.575188 93.4075647,181.864662 C85.8803365,187.75188 89.4458656,200.9 93.4075647,201.161654 L142.070435,227 C142.070435,227 161.08659,201.161654 154.681844,188.602256 C151.842626,183.042105 152.568937,182.322556 154.483759,176.958647 C157.455033,168.781955 151.842626,164.857143 151.842626,164.857143 L148.871352,164.203008 L137.976679,140 L117.177759,154.06391 L114.0084,154.194737 L109.386418,155.045113 Z" id="Path" fill="#21252B" fill-rule="nonzero"></path>
                <path d="M106.170868,549.062738 C106.861811,551.509506 107.069094,552.45057 106.930906,554.834601 L107,571.08365 C106.930906,573.906844 106.032679,576.6673 104.443508,579.114068 L104.098036,579.678707 C103.19981,581.121673 101.47245,582 99.6759968,582 L94.5630135,582 C92.2138049,582 90.1409738,580.557034 89.5882189,578.486692 C88.8972752,576.102662 88.8281808,573.593156 89.3118414,571.146388 L93.6647867,553.705323 C94.0102585,552.19962 94.3557304,550.568441 95.2539572,549 L106.170868,549 L106.170868,549.062738 Z" id="Path" fill="#017EFC" fill-rule="nonzero"></path>
                <path d="M172.46833,507.765611 L175.381958,540.466968 C175.571977,544.298643 176.522073,546.676923 177.598848,548.262443 L189,572.441629 L185.833013,577 L173.418426,570.525792 L162.397313,549.715837 C162.397313,546.148416 162.080614,544.034389 161.447217,539.277828 L156,504 L172.46833,507.765611 Z" id="Path" fill="#FC9D9D" fill-rule="nonzero"></path>
                <path d="M176.059957,551.924754 C174.732334,550.03261 173.072805,545.464714 172.674518,543.376831 L168.691649,531.372157 C168.558887,530.523955 167.895075,529.871491 167.03212,529.740999 L159.132762,528.696405 L159,527 L174.400428,527 L175.728051,541.093209 C175.993576,543.507324 176.591006,546.705047 178.051392,548.792929 L190,572.672437 L187.942184,576 L176.059957,551.924754 Z" id="Path" fill="#000000" fill-rule="nonzero" opacity="0.15"></path>
                <path d="M196.026412,575.984 L189.332251,572.016 C184.522854,572.784 179.583473,570.992 176.463864,567.28 L161.97068,550 C159.371005,555.504 158.461119,561.648 159.306014,567.664 L161.385753,582 L163.075541,582 L163.530484,567.28 C163.595476,566.192 164.960305,565.744 165.610224,566.576 L174.449116,577.2 C176.983798,580.208 180.753326,582 184.717829,582 L198.496103,582 C199.600964,582 200.315875,580.912 199.860932,579.952 C199.146021,578.16 197.781192,576.752 196.026412,575.984 Z" id="Path" fill="#017EFC" fill-rule="nonzero"></path>
                <path d="M106.337128,542.256152 C105.586061,548.393736 105.244667,554.597315 105.381225,560.800895 L105.517782,568.192394 C105.381225,571.426174 102.650074,574 99.304414,574 L98.2119536,574 C94.3883422,574 91.5206337,570.766219 92.0668639,567.136465 L93.842112,558.35906 C94.7297361,553.93736 95.07113,549.383669 94.7980149,544.829978 L93.0910455,515 L109,515.263982 L106.337128,542.256152 Z" id="Path" fill="#FC9D9D" fill-rule="nonzero"></path>
                <path d="M164.563652,300 L166.7585,326.243888 L168.753212,348.212456 C169.817058,359.920256 170.481962,371.628056 170.814414,383.40163 L176,526 L159.045614,526 L129.988646,337.885914 C129.789175,336.636205 128.725329,335.715367 127.395521,335.715367 C125.999222,335.715367 124.869551,336.767753 124.80306,338.083236 L109.510269,525.934226 L94.1503227,525.802678 L86.5039272,390.242142 C84.9081577,361.301513 87.1023408,332.295111 93.0864764,304.012224 L93.9515164,300 L164.563652,300 L164.563652,300 Z" id="Path" fill="#3F4249" fill-rule="nonzero"></path>
                <path d="M109,526 C109,526 107.078431,545.639769 106.941176,548.28098 L106.941176,548.348703 C106.735294,552.073487 106.598039,555.730548 106.666667,559.455331 L106.803922,567.040346 C106.666667,570.291066 104.058824,572.864553 100.833333,573 C103.784314,570.76513 103.509804,567.108069 103.578431,564.399135 L104.058824,531.146974 C104.058824,530.063401 103.303922,529.115274 102.205882,528.912104 L95.0686275,527.62536 L95,526.067723 L109,526 Z" id="Path" fill="#000000" fill-rule="nonzero" opacity="0.15"></path>
                <path d="M126,336 C125.342857,336 124.685714,336.262703 124.225714,336.656758 C123.765714,337.050812 123.437143,337.70757 123.437143,338.364328 L108.454286,526 L103,525.934324 L112.2,349.069478 C112.594286,341.713792 118.64,336 126,336 Z" id="Path" fill="#000000" fill-rule="nonzero" opacity="0.2"></path>
                <path d="M164.777003,308 L166.344948,327.748053 L167.473868,341.394548 C168.916376,358.583883 169.857143,375.838826 170.296167,393.093769 L175,527 L167.850174,527 L158.630662,340.541642 L157,308.196824 L164.212544,308.196824 L164.526132,308.131216 L164.777003,308 Z" id="Path" fill="#000000" fill-rule="nonzero" opacity="0.2"></path>
                <path d="M165.292619,205 L185.723199,245.954877 L231,244.572156 L229.945518,255.897299 L184.734622,264.786219 C179.65993,265.708033 174.453427,263.60103 171.487698,259.387023 L156,237.790239" id="Path" fill="#017EFC" fill-rule="nonzero"></path>
                <path d="M247.451057,240 L254.610724,239 L263.189424,241.533333 C263.898941,241.8 264.221448,242.533333 263.834439,243.133333 C263.576433,243.533333 262.99592,243.733333 262.479908,243.6 L254.223715,242 L249.128096,243.733333 L254.223715,242 L261.383382,244.133333 C261.963896,244.333333 262.221902,244.933333 261.963896,245.4 C261.770391,245.8 261.189878,246 260.738367,245.866667 L253.514199,244.4 L246.096526,246.8 L253.514199,244.4 L258.609817,246.533333 C258.996826,246.733333 259.061328,247.133333 258.803322,247.466667 C258.609817,247.733333 258.222808,247.8 257.964802,247.733333 L252.030664,246.2 L245,248 L247.451057,240 Z" id="Path" fill="#966363" fill-rule="nonzero"></path>
                <path d="M247.451057,240 L254.610724,239 L263.189424,241.533333 C263.898941,241.8 264.221448,242.533333 263.834439,243.133333 C263.576433,243.533333 262.99592,243.733333 262.479908,243.6 L254.223715,242 L249.128096,243.733333 L254.223715,242 L261.383382,244.133333 C261.963896,244.333333 262.221902,244.933333 261.963896,245.4 C261.770391,245.8 261.189878,246 260.738367,245.866667 L253.514199,244.4 L246.096526,246.8 L253.514199,244.4 L258.609817,246.533333 C258.996826,246.733333 259.061328,247.133333 258.803322,247.466667 C258.609817,247.733333 258.222808,247.8 257.964802,247.733333 L252.030664,246.2 L245,248 L247.451057,240 Z" id="Path" fill="#000000" fill-rule="nonzero" opacity="0.15"></path>
                <path d="M247.480463,237.178732 L237.05575,243.246906 C236.420097,243.630159 235.784444,243.821785 235.085226,243.821785 L231.017045,244.013412 L230,255 L233.368962,254.297369 C233.94105,254.169618 234.513138,254.169618 235.085226,254.297369 L235.97514,254.488996 C239.598363,255.383253 243.158021,255 246.272722,253.211486 L246.336287,253.211486 C246.781244,252.955984 247.226202,252.828233 247.734724,252.764357 C249.514553,252.572731 253.964125,252.125602 253.964125,252.125602 C254.218387,252.125602 254.409083,251.933975 254.409083,251.678473 C254.409083,250.528714 253.455603,249.570582 252.120731,249.378955 L249.00603,248.931826 C247.353332,248.676324 246.399852,247.143312 247.162636,245.865802 L250.277337,240.372508 C250.468033,240.05313 250.785859,239.797628 251.230817,239.669877 L262.291182,236.795479 C262.799705,236.667728 263.053966,236.284475 262.990401,235.837347 C262.926835,235.326342 262.354747,234.943089 261.719094,235.006965 C258.92222,235.390218 250.340902,236.603853 248.306812,236.92323 C247.988985,236.92323 247.734724,236.987106 247.480463,237.178732 Z" id="Path" fill="#966363" fill-rule="nonzero"></path>
                <path d="M184,245.870056 L180.857143,246 C180.114286,246 179.428571,245.480226 179.2,244.700565 L174,223 L184,245.870056 Z" id="Path" fill="#000000" fill-rule="nonzero" opacity="0.15"></path>
                <path d="M92.5573948,198.051027 L112.595308,194 L145.22283,194.326696 L157.219212,197.528314 C164.667515,199.880523 168.424624,206.349098 168.358709,214.124456 L167.238168,219.743622 L170.402049,230.393902 C172.181732,237.254512 169.874736,241.240199 164.997086,246.794026 C163.48106,248.558183 162.690089,249.276914 162.096862,252.60921 C162.096862,252.60921 159.196637,263.520846 158.669324,268.029247 C156.625984,285.736154 157.35104,299 157.35104,299 L95.7212758,298.869322 C92.8869657,298.869322 91.6345962,295.863721 93.0187941,293.380834 C93.0187941,293.380834 97.2373021,285.082763 97.9623581,278.091475 C100.533011,255.288114 93.9415927,228.172371 93.9415927,228.172371 L81.0224122,213.993777 C80.626927,206.610454 85.5045769,199.684505 92.5573948,198.051027 Z" id="Path" fill="#017EFC" fill-rule="nonzero"></path>
                <polygon id="Path" fill="#966363" fill-rule="nonzero" points="134 276.1 142.175182 275 144 276.25 141.883212 278"></polygon>
                <path d="M232.722814,253.122061 C233.58209,252.912134 234.441365,252.98211 235.30064,253.262011 C237.481876,254.031742 242.373134,255.361276 247,254.101717 C246.933902,254.101717 246.867804,254.171693 246.801706,254.171693 L246.735608,254.171693 C243.5629,256.200981 239.795309,256.620834 236.027719,255.571202 L235.102345,255.361276 C234.507463,255.221325 233.91258,255.221325 233.317697,255.361276 L216,259 L232.458422,255.571202 L232.722814,253.122061 Z" id="Path" fill="#000000" fill-rule="nonzero" opacity="0.15"></path>
                <path d="M135.935241,288.899233 L125.832831,286.622125 L96.4322289,284 L96.1084337,284.138007 C94.6837349,288.485214 94.1009036,290.003286 93,292.832421 L97.3388554,292.970427 C104.073795,293.108434 110.743976,292.763417 117.414157,291.935378 C123.566265,291.176342 129.847892,291.245345 136,292.142388 L136,288.899233 L135.935241,288.899233 Z" id="Path" fill="#000000" fill-rule="nonzero" opacity="0.15"></path>
                <polygon id="Path" fill="#21252B" fill-rule="nonzero" points="157 306 156.336057 299.134615 93.7262513 299 92 306"></polygon>
                <polygon id="Path" fill="#000000" fill-rule="nonzero" opacity="0.6" points="129 276.647059 126.424528 276 122 285.764706 124.971698 286"></polygon>
                <path d="M114.830343,199.208473 L107,193.999065 L111.5677,193 L143.867863,193.356809 L147,194.284512 L139.23491,199.351197 C131.796085,204.275158 122.399674,204.203797 114.830343,199.208473 Z" id="Path" fill="#000000" fill-rule="nonzero" opacity="0.6"></path>
                <path d="M116.893617,168.637718 L115.297872,189.805401 C115.234043,191.58586 114.085106,193.102548 112.425532,193.564149 L110,194.223578 L115.553191,197.784497 C122.12766,202.004845 130.361702,202.070788 137,197.982325 L143,194.289521 L139.93617,193.432263 C138.404255,192.970662 137.255319,191.651803 137.12766,190.00323 L136.106383,166 L116.893617,168.637718 Z" id="Path" fill="#966363" fill-rule="nonzero"></path>
                <path d="M130.830172,184.964113 L129.753512,184.827927 C122.1496,184.215091 116.497135,177.54199 117.035465,169.847496 L118.515872,150.304843 C118.717746,147.717314 120.938358,145.810714 123.428134,146.014993 L141.46219,147.444943 C144.759461,147.717314 147.249237,150.645308 146.980072,153.913765 L145.566956,172.094561 C145.028626,179.789055 138.434083,185.508856 130.830172,184.964113 Z" id="Path" fill="#966363" fill-rule="nonzero"></path>
                <path d="M131,166 C131.552273,166 132,165.552273 132,165 C132,164.447727 131.552273,164 131,164 C130.447727,164 130,164.447727 130,165 C130,165.552273 130.447727,166 131,166 Z" id="Path" fill="#21252B" fill-rule="nonzero"></path>
                <path d="M131.5,166 C131.777,166 132,165.776 132,165.5 C132,165.224 131.777,165 131.5,165 C131.224,165 131,165.224 131,165.5 C131,165.776 131.224,166 131.5,166 Z" id="Path" fill="#FFFFFF" fill-rule="nonzero"></path>
                <path d="M143,167 C143.552273,167 144,166.552273 144,166 C144,165.447727 143.552273,165 143,165 C142.447727,165 142,165.447727 142,166 C142,166.552273 142.447727,167 143,167 Z" id="Path" fill="#21252B" fill-rule="nonzero"></path>
                <path d="M143.5,166 C143.776,166 144,165.776 144,165.5 C144,165.224 143.776,165 143.5,165 C143.224,165 143,165.224 143,165.5 C143,165.776 143.224,166 143.5,166 Z" id="Path" fill="#FFFFFF" fill-rule="nonzero"></path>
                <g id="Group" opacity="0.3" transform="translate(134.000000, 171.000000)" fill="#000000" fill-rule="nonzero">
                    <path d="M1.62857143,2.85 L0.342857143,2.8 C0.171428571,2.8 0.0857142857,2.65 0.0857142857,2.45 C0.0857142857,2.25 0.214285714,2.15 0.385714286,2.15 L1.67142857,2.2 C1.97142857,2.2 2.27142857,1.95 2.27142857,1.55 C2.27142857,1.15 2.05714286,0.85 1.71428571,0.85 C1.54285714,0.85 1.45714286,0.7 1.45714286,0.5 C1.45714286,0.3 1.58571429,0.2 1.75714286,0.2 C2.4,0.25 2.87142857,0.85 2.82857143,1.6 C2.78571429,2.3 2.27142857,2.85 1.62857143,2.85 Z" id="Path"></path>
                </g>
                <path d="M152,164.579569 C150.046512,162.900877 151.153488,160.189145 151.153488,160.189145 L151.153488,160.25371 C154.734884,145.468312 145.227907,136.041814 136.632558,134.298557 C131.748837,133.330081 118.660465,133.911167 114.55814,148.696565 C113.972093,150.827212 113.776744,153.151554 110,154.89481 C110,154.89481 112.27907,162.642617 112.865116,165.48348 C113.125581,166.710216 115.860465,162.126097 116.967442,161.674141 C117.097674,161.609576 117.87907,163.030007 118.4,163.933918 C118.725581,164.515004 119.572093,164.515004 119.832558,163.933918 L119.962791,163.740223 C120.874419,161.674141 121.460465,159.478929 121.655814,157.219152 C127.972093,155.734156 127.972093,149.40678 127.972093,149.40678 C133.572093,162.319792 146.009302,159.091539 146.009302,159.091539 L145.35814,166 C145.35814,166 146.725581,164.966959 148.15814,163.094572 L150.176744,164.902394 L152,164.579569 Z" id="Path" fill="#21252B" fill-rule="nonzero"></path>
                <path d="M118.224415,169.942635 C118.224415,169.942635 111.314656,170.172095 110.116024,164.607692 C108.917392,158.985925 117.378322,158.24018 118.36543,163.861948 L119,170 L118.224415,169.942635 Z" id="Path" fill="#966363" fill-rule="nonzero"></path>
                <path d="M114.138121,160.605411 C114.637814,160.057532 115.09208,159.900996 115.50092,160.057532 C115.90976,160.214069 116.273173,160.761948 116.545733,161.622901 C116.818293,162.483853 117,163.501343 117,164.5971 L117,165.458053 C117,166.0842 116.409453,166.240737 116.409453,165.536321 C116.409453,164.675369 116.409453,164.675369 116.409453,164.675369 C116.409453,164.440564 116.364027,163.031732 116.04604,162.17078 C115.864334,161.544632 115.6372,161.231559 115.36464,161.075022 C115.09208,160.996753 114.81952,161.075022 114.456107,161.466364 C114.319827,161.622901 114.138121,161.544632 114.047267,161.309827 C113.956414,160.996753 114.001841,160.68368 114.138121,160.605411 Z" id="Path" fill="#000000" fill-rule="nonzero" opacity="0.3"></path>
                <path d="M143.638606,161.965024 C141.875944,161.89744 140.239187,162.708443 139.168999,163.992531 C137.721098,163.181528 136.336149,163.451862 135.706627,163.587029 C134.888248,161.559522 132.999682,160.140267 130.859306,160.0051 C127.774648,159.869933 125.130655,162.438109 125.00475,165.749704 C124.878846,169.061299 127.27103,171.899809 130.355689,172.034976 C133.440347,172.170144 136.08434,169.601968 136.210245,166.290372 C136.210245,165.614537 136.147293,164.938701 135.958436,164.262865 C136.525006,164.127698 137.595194,163.992531 138.728333,164.600783 C138.161764,165.47937 137.847002,166.560707 137.78405,167.709628 C137.658146,171.021223 140.05033,173.859733 143.134989,173.9949 C146.219647,174.130067 148.86364,171.561891 148.989545,168.250296 C149.178401,164.938701 146.786217,162.167774 143.638606,161.965024 Z M130.418641,171.359141 C127.711696,171.223974 125.634272,168.790965 125.760177,165.884871 C125.886081,162.978777 128.152361,160.748519 130.859306,160.883686 C133.566252,161.018853 135.643675,163.451862 135.51777,166.357956 C135.454818,169.196466 133.125586,171.494308 130.418641,171.359141 Z M143.197941,173.251481 C140.490996,173.116314 138.413572,170.683305 138.539477,167.777211 C138.665381,164.871117 140.931661,162.640859 143.638606,162.776026 C146.345552,162.911194 148.422975,165.344202 148.29707,168.250296 C148.171166,171.15639 145.904886,173.386648 143.197941,173.251481 Z" id="Shape" fill="#FFFFFF" fill-rule="nonzero"></path>
                <path d="M116,170 C116.552105,170 117,169.552105 117,169 C117,168.447895 116.552105,168 116,168 C115.447368,168 115,168.447895 115,169 C115,169.552105 115.447368,170 116,170 Z" id="Path" fill="#017EFC" fill-rule="nonzero"></path>
                <path d="M117.666667,169.833333 C116.866667,169.777778 116.266667,169.277778 116.333333,168.611111 C116.333333,168.388889 116.466667,168.166667 116.6,168 C116.266667,168.166667 116,168.5 116,168.888889 C116,169.5 116.533333,170 117.266667,170 C117.533333,170 117.8,169.944444 118,169.833333 C117.866667,169.777778 117.8,169.833333 117.666667,169.833333 Z" id="Path" fill="#000000" fill-rule="nonzero" opacity="0.15"></path>
                <polygon id="Path" fill="#000000" fill-rule="nonzero" opacity="0.15" points="117.47619 172 119 172.136364 117 175"></polygon>
                <path d="M137.725906,183.142247 L137.451812,183.280055 C135.190538,184.244715 132.723693,184.451428 130.119801,184.244715 C129.571613,184.175811 129.023425,184.106907 128.475237,184.038002 C128.269667,183.969098 128.064096,183.969098 127.858526,183.900194 C127.790003,183.900194 127.790003,183.900194 127.721479,183.900194 C127.378862,183.83129 127.104768,183.762385 126.76215,183.624577 C126.625104,183.555672 126.488057,183.555672 126.35101,183.486768 C124.226782,182.797725 122.650742,181.901969 121.62289,181.075117 C121.41732,180.937309 121.211749,181.006213 121.074702,181.144022 C120.937655,181.350735 121.006179,181.557448 121.143226,181.695256 C122.376648,182.659916 124.432352,183.83129 127.310338,184.520333 C128.680808,185.829514 131.079129,187.552122 134.368256,187.896644 C135.464632,188.034452 136.492484,188.034452 137.520336,187.896644 L138,187.827739 L137.725906,183.142247 Z" id="Path" fill="#000000" fill-rule="nonzero" opacity="0.15"></path>
                <path d="M137.762397,175.813683 C137.9736,175.813683 138.044,176.060326 137.9736,176.183647 C136.987989,177.41686 135.368771,178.156787 133.679153,177.971805 C131.989535,177.786823 130.581519,176.738593 130.018313,175.320398 C129.947913,175.135416 130.088714,174.950434 130.299916,175.012095 L137.762397,175.813683 Z" id="Path" fill="#FFFFFF" fill-rule="nonzero"></path>
                <polygon id="Path" fill="#000000" fill-rule="nonzero" opacity="0.6" points="233 244 230.827586 244.114943 230 254 232.017241 253.54023"></polygon>
                <path d="M161.66075,245.169372 C166.484221,239.622219 167.27712,234.140327 165.427022,227.287961 L163.444773,220.174554 L161.792899,212.473801 C161.792899,212.40854 161.792899,212.343279 161.792899,212.343279 C161.792899,212.212758 161.925049,212.082237 162.057199,212.016976 C162.255424,211.951716 162.453649,212.082237 162.519724,212.278019 L164.568047,221.349245 L165.559172,224.416494 C165.559172,224.416494 173.422091,235.5108 170.977318,243.92942 C170.052268,246.996669 169.523669,249.019748 171.439842,251.630173 L174.87574,256.655241 C177.981262,259.461447 182.606509,258.743581 182.606509,258.743581 L228,251.499652 L227.7357,253.979555 L185.381657,262.267654 L185.447732,262.267654 L182.408284,262.789739 C177.981262,263.572867 173.488166,262.137133 170.448718,259.004623 C169.986193,258.547799 169.523669,258.025714 169.127219,257.438368 L161,245.952499 C161.198225,245.691456 161.462525,245.430414 161.66075,245.169372 Z" id="Path" fill="#000000" fill-rule="nonzero" opacity="0.15"></path>
                <path d="M144.511014,160 C132.705491,159.879362 128.095051,150.710839 128.025195,150.5902 C127.95534,150.348923 128.025195,150.107646 128.304616,150.047327 C128.584037,149.926689 128.863457,150.047327 128.933312,150.288604 C129.003168,150.348923 133.404043,159.034892 144.511014,159.155531 C144.790435,159.155531 145,159.336488 145,159.577765 C145,159.819042 144.790435,160 144.511014,160 Z" id="Path" fill="#21252B" fill-rule="nonzero"></path>
                <g id="Group" opacity="0.3" transform="translate(81.000000, 203.000000)" fill="#FFFFFF" fill-rule="nonzero">
                    <path d="M47.4412016,6.87272727 C20.886938,6.87272727 0.592364341,2.99090909 0.262906977,2.92727273 L1.05360465,1.59090909 C1.05360465,1.59090909 1.05360465,1.59090909 2.04197674,0.254545455 C7.51096899,1.20909091 43.9489535,7.25454545 83.2202713,1.27272727 L84.6698837,4.07272727 L84.2086434,4.2 C71.3598062,6.17272727 58.7745349,6.87272727 47.4412016,6.87272727 Z" id="Path"></path>
                </g>
                <g id="Group" opacity="0.3" transform="translate(97.000000, 248.000000)" fill="#FFFFFF" fill-rule="nonzero">
                    <path d="M45.936,7.4 C21.912,7.4 0.924,3.8 0.66,3.73333333 L0.33,0.6 C0.66,0.666666667 35.376,6.46666667 65.406,3.4 L64.68,6.46666667 C58.278,7.2 52.272,7.4 45.936,7.4 Z" id="Path"></path>
                </g>
                <g id="Group" opacity="0.3" transform="translate(98.000000, 268.000000)" fill="#FFFFFF" fill-rule="nonzero">
                    <path d="M44.0217391,6.93636364 C20.2826087,6.93636364 0.260869565,3.62727273 0,3.56363636 L0.0652173913,0.572727273 C0.391304348,0.636363636 29.7391304,6.23636364 59.4130435,3.30909091 L59.7391304,6.23636364 C53.4782609,6.93636364 50.3478261,6.93636364 44.0217391,6.93636364 Z" id="Path"></path>
                </g>
                <g id="Group" opacity="0.3" transform="translate(93.000000, 285.000000)" fill="#FFFFFF" fill-rule="nonzero">
                    <path d="M47.1653465,6.74545455 C23.0188119,6.74545455 0.72970297,3.18181818 0.398019802,3.18181818 L1.59207921,0.127272727 C1.92376238,0.190909091 36.0207921,5.91818182 66.270297,2.99090909 L66.6019802,5.91818182 C60.1673267,6.49090909 53.6,6.74545455 47.1653465,6.74545455 Z" id="Path"></path>
                </g>
                <line x1="98" y1="269" x2="124" y2="275" id="Path" stroke="#000000" stroke-width="1.1756" opacity="0.15" stroke-linecap="round"></line>
                <polygon id="Path" fill="#000000" fill-rule="nonzero" opacity="0.15" points="134 276.1 142.175182 275 144 276.25 141.883212 278"></polygon>
                <path d="M79.5926009,208 L85.8460802,208.452561 C90.8488637,216.598657 93.8110381,223.063812 93.5477337,232.56759 L94.0085164,236.31738 L81.8965143,266.380353 L126,274.655751 L120.799738,285 L68.1388598,281.314861 C62.4778154,280.991604 58.4624234,274.979009 60.5688586,269.418976 L79.5926009,208 Z" id="Path" fill="#017EFC" fill-rule="nonzero"></path>
                <path d="M125.2604,303.192497 L147.981341,264.038483 C148.509735,263.181577 149.566523,262.786082 150.557261,263.115661 L182.591146,273.92586 C183.846081,274.321355 184.374475,275.705588 183.713983,276.826158 L162.314027,313.93678 C161.851682,314.72777 160.860944,315.189181 159.870205,314.925518 L126.515336,306.15871 C125.2604,305.763215 124.599908,304.313066 125.2604,303.192497 Z" id="Path" fill="#3F4249" fill-rule="nonzero"></path>
                <path d="M125.2604,303.192497 L147.981341,264.038483 C148.509735,263.181577 149.566523,262.786082 150.557261,263.115661 L182.591146,273.92586 C183.846081,274.321355 184.374475,275.705588 183.713983,276.826158 L162.314027,313.93678 C161.851682,314.72777 160.860944,315.189181 159.870205,314.925518 L126.515336,306.15871 C125.2604,305.763215 124.599908,304.313066 125.2604,303.192497 Z" id="Path" fill="#000000" fill-rule="nonzero" opacity="0.8"></path>
                <path d="M126.2604,303.192497 L148.981341,264.038483 C149.509735,263.181577 150.566523,262.786082 151.557261,263.115661 L183.591146,273.92586 C184.846081,274.321355 185.374475,275.705588 184.713983,276.826158 L163.314027,313.93678 C162.851682,314.72777 161.860944,315.189181 160.870205,314.925518 L127.515336,306.15871 C126.2604,305.763215 125.599908,304.378982 126.2604,303.192497 Z" id="Path" fill="#21252B" fill-rule="nonzero"></path>
                <path d="M159.921181,282.200202 C160.419265,281.882787 160.561575,281.520026 160.419265,281.20261 C161.486588,280.975885 162.625065,280.930539 163.550078,281.11192 C165.115485,281.474681 165.471259,282.336238 164.332782,283.107105 C163.194304,283.877971 160.988504,284.195387 159.423097,283.877971 C158.498084,283.651246 158,283.24314 158,282.789689 C158.711549,282.744344 159.423097,282.517618 159.921181,282.200202 Z" id="Path" fill="#3F4249" fill-rule="nonzero"></path>
                <path d="M183.035778,277.78166 C183.80944,277.436892 184.196579,276.807878 183.900532,276.376298 C183.6051,275.944719 182.737884,275.873781 181.964222,276.218549 C181.19056,276.56282 180.803421,277.191835 181.099468,277.62391 C181.395516,278.05549 182.262116,278.125931 183.035778,277.78166 Z" id="Path" fill="#000000" fill-rule="nonzero" opacity="0.4"></path>
                <path d="M183.035919,277.781694 C183.808912,277.43692 184.196639,276.807893 183.900613,276.376306 C183.604586,275.944718 182.738046,275.873779 181.964438,276.218553 C181.19083,276.562831 180.803718,277.191858 181.099129,277.623445 C181.395156,278.055529 182.262311,278.125972 183.035919,277.781694 Z" id="Path" fill="#3F4249" fill-rule="nonzero"></path>
                <path d="M181.363208,277.787687 C181.877718,277.44733 182.131843,276.818344 181.931547,276.383527 C181.730626,275.94871 181.151019,275.872242 180.636509,276.212599 C180.121999,276.552956 179.867873,277.181192 180.068795,277.616009 C180.269091,278.050827 180.848697,278.128044 181.363208,277.787687 Z" id="Path" fill="#000000" fill-rule="nonzero" opacity="0.5"></path>
                <path d="M181.423786,277 C181.675042,276.538462 181.340034,276.076923 180.837521,276 C180.921273,276 181.005025,276 181.088777,276 C181.758794,276 182.177554,276.461538 181.926298,277 C181.675042,277.538462 180.921273,278 180.251256,278 C180.167504,278 180.083752,278 180,278 C180.586265,277.923077 181.256281,277.538462 181.423786,277 Z" id="Path" fill="#000000" fill-rule="nonzero" opacity="0.4"></path>
                <path d="M129.04795,276 L129.962003,276.211232 C130.157872,276.281642 130.35374,276.281642 130.614899,276.281642 L141.452959,276.070411 C142.56288,276.070411 143.672802,276.281642 144.782724,276.704106 L157.253022,281.632846 C157.775338,281.844078 158.101786,282.477773 157.971207,283.041057 C157.840628,283.674752 157.187732,284.026805 156.600127,283.885984 L144.652145,280.506277 L156.012521,287.195281 C156.600127,287.547334 156.795995,288.25144 156.469548,288.885135 C156.20839,289.448419 155.555494,289.730062 154.967889,289.51883 L143.411644,284.59009 L153.857967,289.025956 C154.445573,289.237188 154.706731,289.941293 154.510862,290.574989 C154.314994,291.208684 153.727388,291.560737 153.074493,291.419916 L142.432301,288.32185 L151.572834,290.997452 C152.09515,291.138273 152.356308,291.701558 152.225729,292.194432 C152.09515,292.757716 151.638123,293.109769 151.115807,292.968948 L126.697527,287.406513 L125,287.265692 L129.04795,276 Z" id="Path" fill="#966363" fill-rule="nonzero"></path>
                <line x1="154" y1="287" x2="144" y2="284" id="Path" stroke="#000000" stroke-width="1.1756" opacity="0.15" stroke-linecap="round"></line>
                <line x1="141" y1="289" x2="151" y2="291" id="Path" stroke="#000000" stroke-width="1.1756" opacity="0.15" stroke-linecap="round"></line>
                <path d="M153,291.200216 C152.870504,291.759456 152.417266,292.108981 151.899281,291.969171 L127.683453,286.446675 L126,286.306865 L126.841727,284 L153,291.200216 Z" id="Path" fill="#000000" fill-rule="nonzero" opacity="0.15"></path>
                <path d="M80.0161566,266.482095 L82.7529317,267 L94.0421287,239.8747 L95,237.608864 C94.1105481,233.724573 92.9474187,228.674994 92.263225,225.567561 C92.1263862,224.855441 91.0316762,224.790703 90.7579987,225.502823 L78.1004141,263.504138 C77.6898978,264.798902 78.5793497,266.223142 80.0161566,266.482095 Z" id="Path" fill="#000000" fill-rule="nonzero" opacity="0.15"></path>
                <line x1="125" y1="275" x2="115" y2="273" id="Path" stroke="#000000" stroke-width="1.1756" opacity="0.15" stroke-linecap="round"></line>
                <line x1="111" y1="271" x2="98" y2="269" id="Path" stroke="#000000" stroke-width="1.1756" opacity="0.15" stroke-linecap="round"></line>
                <polygon id="Path" fill="#000000" fill-rule="nonzero" opacity="0.15" points="134 276.1 142.175182 275 144 276.25 141.883212 278"></polygon>
                <path d="M125.2604,303.192497 L147.981341,264.038483 C148.509735,263.181577 149.566523,262.786082 150.557261,263.115661 L182.591146,273.92586 C183.846081,274.321355 184.374475,275.705588 183.713983,276.826158 L162.314027,313.93678 C161.851682,314.72777 160.860944,315.189181 159.870205,314.925518 L126.515336,306.15871 C125.2604,305.763215 124.599908,304.313066 125.2604,303.192497 Z" id="Path" fill="#3F4249" fill-rule="nonzero"></path>
                <path d="M125.2604,303.192497 L147.981341,264.038483 C148.509735,263.181577 149.566523,262.786082 150.557261,263.115661 L182.591146,273.92586 C183.846081,274.321355 184.374475,275.705588 183.713983,276.826158 L162.314027,313.93678 C161.851682,314.72777 160.860944,315.189181 159.870205,314.925518 L126.515336,306.15871 C125.2604,305.763215 124.599908,304.313066 125.2604,303.192497 Z" id="Path" fill="#000000" fill-rule="nonzero" opacity="0.8"></path>
                <path d="M126.2604,303.192497 L148.981341,264.038483 C149.509735,263.181577 150.566523,262.786082 151.557261,263.115661 L183.591146,273.92586 C184.846081,274.321355 185.374475,275.705588 184.713983,276.826158 L163.314027,313.93678 C162.851682,314.72777 161.860944,315.189181 160.870205,314.925518 L127.515336,306.15871 C126.2604,305.763215 125.599908,304.378982 126.2604,303.192497 Z" id="Path" fill="#21252B" fill-rule="nonzero"></path>
                <path d="M159.921181,282.200202 C160.419265,281.882787 160.561575,281.520026 160.419265,281.20261 C161.486588,280.975885 162.625065,280.930539 163.550078,281.11192 C165.115485,281.474681 165.471259,282.336238 164.332782,283.107105 C163.194304,283.877971 160.988504,284.195387 159.423097,283.877971 C158.498084,283.651246 158,283.24314 158,282.789689 C158.711549,282.744344 159.423097,282.517618 159.921181,282.200202 Z" id="Path" fill="#3F4249" fill-rule="nonzero"></path>
                <path d="M183.035778,277.78166 C183.80944,277.436892 184.196579,276.807878 183.900532,276.376298 C183.6051,275.944719 182.737884,275.873781 181.964222,276.218549 C181.19056,276.56282 180.803421,277.191835 181.099468,277.62391 C181.395516,278.05549 182.262116,278.125931 183.035778,277.78166 Z" id="Path" fill="#000000" fill-rule="nonzero" opacity="0.4"></path>
                <path d="M183.035919,277.781694 C183.808912,277.43692 184.196639,276.807893 183.900613,276.376306 C183.604586,275.944718 182.738046,275.873779 181.964438,276.218553 C181.19083,276.562831 180.803718,277.191858 181.099129,277.623445 C181.395156,278.055529 182.262311,278.125972 183.035919,277.781694 Z" id="Path" fill="#3F4249" fill-rule="nonzero"></path>
                <path d="M181.363208,277.787687 C181.877718,277.44733 182.131843,276.818344 181.931547,276.383527 C181.730626,275.94871 181.151019,275.872242 180.636509,276.212599 C180.121999,276.552956 179.867873,277.181192 180.068795,277.616009 C180.269091,278.050827 180.848697,278.128044 181.363208,277.787687 Z" id="Path" fill="#000000" fill-rule="nonzero" opacity="0.5"></path>
                <path d="M181.423786,277 C181.675042,276.538462 181.340034,276.076923 180.837521,276 C180.921273,276 181.005025,276 181.088777,276 C181.758794,276 182.177554,276.461538 181.926298,277 C181.675042,277.538462 180.921273,278 180.251256,278 C180.167504,278 180.083752,278 180,278 C180.586265,277.923077 181.256281,277.538462 181.423786,277 Z" id="Path" fill="#000000" fill-rule="nonzero" opacity="0.4"></path>
                <path d="M129.04795,276 L129.962003,276.211232 C130.157872,276.281642 130.35374,276.281642 130.614899,276.281642 L141.452959,276.070411 C142.56288,276.070411 143.672802,276.281642 144.782724,276.704106 L157.253022,281.632846 C157.775338,281.844078 158.101786,282.477773 157.971207,283.041057 C157.840628,283.674752 157.187732,284.026805 156.600127,283.885984 L144.652145,280.506277 L156.012521,287.195281 C156.600127,287.547334 156.795995,288.25144 156.469548,288.885135 C156.20839,289.448419 155.555494,289.730062 154.967889,289.51883 L143.411644,284.59009 L153.857967,289.025956 C154.445573,289.237188 154.706731,289.941293 154.510862,290.574989 C154.314994,291.208684 153.727388,291.560737 153.074493,291.419916 L142.432301,288.32185 L151.572834,290.997452 C152.09515,291.138273 152.356308,291.701558 152.225729,292.194432 C152.09515,292.757716 151.638123,293.109769 151.115807,292.968948 L126.697527,287.406513 L125,287.265692 L129.04795,276 Z" id="Path" fill="#966363" fill-rule="nonzero"></path>
                <line x1="154" y1="287" x2="144" y2="284" id="Path" stroke="#000000" stroke-width="1.1756" opacity="0.15" stroke-linecap="round"></line>
                <line x1="141" y1="289" x2="151" y2="291" id="Path" stroke="#000000" stroke-width="1.1756" opacity="0.15" stroke-linecap="round"></line>
                <path d="M153,291.200216 C152.870504,291.759456 152.417266,292.108981 151.899281,291.969171 L127.683453,286.446675 L126,286.306865 L126.841727,284 L153,291.200216 Z" id="Path" fill="#000000" fill-rule="nonzero" opacity="0.15"></path>
                <path d="M95,237.608864 L94.0405473,239.8747 L88.1467667,254.052363 L84.4460208,262.921494 L83.5551005,264.993116 L83.0753741,266.158404 L82.7327125,267 L80.7452748,266.611571 L79.9914192,266.482095 C78.7578372,266.223142 77.9354492,265.252069 78.0039815,264.15152 C78.0039815,263.957305 78.0725138,263.763091 78.0725138,263.504138 L81.9103245,252.110217 L82.8697771,249.261737 L88.9006224,231.135045 L89.7915427,228.351303 L90.7509954,225.502823 C90.9565924,224.790703 92.0531097,224.855441 92.2587067,225.567561 C92.6699007,227.315492 93.2181594,229.646067 93.766418,232.04138 L93.9034827,232.494547 C94.2461443,234.307216 94.6573383,236.055147 95,237.608864 Z" id="Path" fill="#000000" fill-rule="nonzero" opacity="0.15"></path>
                <g id="Group" opacity="0.3" transform="translate(76.000000, 223.000000)" fill="#FFFFFF" fill-rule="nonzero">
                    <path d="M17.6275862,9.875 L16.5103448,9.625 C10.6758621,8 1.86206897,3.875 0.434482759,3.1875 L0.868965517,1.8125 L1.30344828,0.4375 C2.54482759,1.0625 11.4206897,5.3125 17.0068966,6.875 L17.6275862,9.875 Z" id="Path"></path>
                </g>
                <g id="Group" opacity="0.3" transform="translate(68.000000, 244.000000)" fill="#FFFFFF" fill-rule="nonzero">
                    <path d="M21.79375,7.3125 L20.69375,10 C14.9875,8.5625 4.19375,4.6875 0.34375,3.3125 L1.30625,0.5625 C4.88125,1.8125 16.15625,5.875 21.79375,7.3125 Z" id="Path"></path>
                </g>
                <g id="Group" opacity="0.3" transform="translate(60.000000, 263.000000)" fill="#FFFFFF" fill-rule="nonzero">
                    <path d="M23.8,0.533333333 L22.9333333,2.66666667 L22.4666667,3.86666667 C21.7333333,4 21,4.13333333 20.2,4.33333333 C13.2,5.86666667 3.53333333,8.66666667 0.0666666667,9.66666667 C0.133333333,9.06666667 0.333333333,8.46666667 0.533333333,7.8 L1,6.13333333 C4.86666667,5 11.7333333,3.06666667 17.5333333,1.73333333 C19.8666667,1.2 22.0666667,0.8 23.8,0.533333333 Z" id="Path"></path>
                </g>
                <g id="Group" opacity="0.3" transform="translate(84.000000, 268.000000)" fill="#FFFFFF" fill-rule="nonzero">
                    <path d="M10.4493889,0.866666667 C8.49383333,4.6 5.37716667,11 3.29938889,15.4 L0.243833333,15.1333333 C2.13827778,11.0666667 5.31605556,4.46666667 7.51605556,0.266666667 L10.4493889,0.866666667 Z" id="Path"></path>
                </g>
                <g id="Group" opacity="0.3" transform="translate(106.000000, 273.000000)" fill="#FFFFFF" fill-rule="nonzero">
                    <path d="M9.4,0.72 C7.46666667,4.14 5.06666667,8.58 3.46666667,11.7 L0.133333333,11.46 C1.66666667,8.52 4.13333333,3.96 6.26666667,0.18 C6.33333333,0.18 6.26666667,0.18 9.4,0.72 Z" id="Path"></path>
                </g>
                <g id="Group" opacity="0.3" transform="translate(167.000000, 224.000000)" fill="#FFFFFF" fill-rule="nonzero">
                    <polygon id="Path" points="1 7.46666667 0.214285714 4.33333333 8 0.133333333 9.64285714 2.8"></polygon>
                </g>
                <g id="Group" opacity="0.3" transform="translate(167.000000, 241.000000)" fill="#FFFFFF" fill-rule="nonzero">
                    <polygon id="Path" points="17.3769231 3.32307692 2.35384615 17.8615385 0.484615385 15.2307692 15.8538462 0.346153846"></polygon>
                </g>
                <g id="Group" opacity="0.3" transform="translate(197.000000, 244.000000)" fill="#FFFFFF" fill-rule="nonzero">
                    <polygon id="Path" points="2.82 0.138461538 2.82 17.3076923 0.06 17.9307692 0.06 0.207692308"></polygon>
                </g>
                <g id="Group" opacity="0.3" transform="translate(214.000000, 245.000000)" fill="#FFFFFF" fill-rule="nonzero">
                    <polygon id="Path" points="5.925 0.190909091 3.45 13.1090909 0 13.7454545 2.475 0.254545455"></polygon>
                </g>
                <g id="Group" opacity="0.3" transform="translate(92.000000, 226.000000)" fill="#FFFFFF" fill-rule="nonzero">
                    <path d="M41.7384783,6.65 C20.2819565,6.65 1.10804348,3.78 0.847173913,3.71 L0.260217391,0.49 C0.71673913,0.56 45.9123913,7.21 74.2167391,0.21 L74.868913,3.36 C64.9558696,5.81 53.0863043,6.65 41.7384783,6.65 Z" id="Path"></path>
                </g>
                <path d="M304.379495,222.425051 L297.735246,220 L297.472107,220.655419 C280.828592,218.099285 264.185077,227.406236 258.198674,243.791715 C252.212271,260.111651 258.85652,278.004593 273.197573,286.721668 L272.934435,287.377087 L279.578684,289.802138 C298.261523,296.618497 318.917902,287.049377 325.759505,268.435474 C332.666893,249.887112 323.062334,229.24141 304.379495,222.425051 Z" id="Path" fill="#017EFC" fill-rule="nonzero"></path>
                <path d="M286,291 C305.882267,291 322,274.882267 322,255 C322,235.117733 305.882267,219 286,219 C266.117733,219 250,235.117733 250,255 C250,274.882267 266.117733,291 286,291 Z" id="Path" fill="#017EFC" fill-rule="nonzero"></path>
                <path d="M286,291 C305.882267,291 322,274.882267 322,255 C322,235.117733 305.882267,219 286,219 C266.117733,219 250,235.117733 250,255 C250,274.882267 266.117733,291 286,291 Z" id="Path" fill="#FFFFFF" fill-rule="nonzero" opacity="0.4"></path>
                <path d="M274.322954,265.982268 L267.153417,249.855348 C266.762351,248.970749 267.153417,247.950058 267.935548,247.541781 L271.97656,245.568445 C272.823869,245.160169 273.801533,245.568445 274.192599,246.384998 L278.82021,256.728002 L302.740393,245.160169 C303.587702,244.751892 304.565367,245.160169 304.956432,245.976722 L306.846583,250.195578 C307.237649,251.080177 306.846583,252.100868 306.064452,252.509145 L276.604171,266.798821 C275.691684,267.275143 274.71402,266.866867 274.322954,265.982268 Z" id="Path" fill="#FFFFFF" fill-rule="nonzero"></path>
                <path d="M255,251.736842 C255,251.989474 254.79661,252.178947 254.525424,252.178947 C254.525424,252.178947 249.847458,252.621053 247.881356,252.810526 C247.610169,252.810526 247.271186,252.873684 247,253 L247,247 C247,248.010526 247.949153,248.894737 249.237288,249.084211 L252.559322,249.526316 C253.237288,249.589474 253.847458,249.905263 254.254237,250.284211 C254.661017,250.663158 255,251.168421 255,251.736842 Z" id="Path" fill="#966363" fill-rule="nonzero"></path>
            </g>
        </g>
    </g>
</svg>