<?xml version="1.0" encoding="UTF-8" standalone="no" ?>
<!DOCTYPE svg PUBLIC "-//W3C//DTD SVG 1.1//EN" "http://www.w3.org/Graphics/SVG/1.1/DTD/svg11.dtd">
<svg xmlns="http://www.w3.org/2000/svg" xmlns:xlink="http://www.w3.org/1999/xlink" version="1.1" width="100" height="100" viewBox="0 0 100 100" xml:space="preserve">
<desc>Created with Fabric.js 4.2.0</desc>
<defs>
</defs>
<g transform="matrix(1 0 0 1 50 50)" id="9efac874-3d9c-412f-8bc5-1d9a5c26656e"  >
<rect style="stroke: none; stroke-width: 1; stroke-dasharray: none; stroke-linecap: butt; stroke-dashoffset: 0; stroke-linejoin: miter; stroke-miterlimit: 4; fill: rgb(255,255,255); fill-opacity: 0; fill-rule: nonzero; opacity: 1;" vector-effect="non-scaling-stroke"  x="-50" y="-50" rx="0" ry="0" width="100" height="100" />
</g>
<g transform="matrix(0 0 0 0 0 0)" id="0995383e-af08-4276-ac53-4fb321b3bd5b"  >
</g>
<g transform="matrix(4.09 0 0 4.09 50.03 50.03)"  >
<path style="stroke: rgb(255,255,255); stroke-width: 0; stroke-dasharray: none; stroke-linecap: butt; stroke-dashoffset: 0; stroke-linejoin: miter; stroke-miterlimit: 4; fill: rgb(255,255,255); fill-rule: nonzero; opacity: 1;" vector-effect="non-scaling-stroke"  transform=" translate(-12, -12)" d="M 12 0 C 18.623 0 24 5.377 24 12 C 24 18.623 18.623 24 12 24 C 5.376999999999999 24 0 18.623 0 12 C 0 5.376999999999999 5.377 0 12 0 z M 20.127000000000002 19.41 C 19.845000000000002 19.009 19.355000000000004 18.756 18.503000000000004 18.56 C 14.655000000000005 17.654 14.406000000000002 17.058999999999997 14.151000000000003 16.500999999999998 C 13.892000000000003 15.935999999999998 13.961000000000004 15.270999999999997 14.356000000000003 14.523999999999997 C 16.082000000000004 11.266999999999998 16.446000000000005 8.499999999999996 15.383000000000003 6.733999999999997 C 14.709000000000003 5.6149999999999975 13.508000000000003 4.999999999999997 12.000000000000004 4.999999999999997 C 10.479000000000003 4.999999999999997 9.268000000000004 5.625999999999998 8.591000000000005 6.762999999999997 C 7.525000000000005 8.551999999999998 7.898000000000005 11.306999999999997 9.640000000000004 14.519999999999996 C 10.042000000000003 15.261999999999997 10.116000000000003 15.925999999999997 9.860000000000005 16.493999999999996 C 9.595000000000004 17.079999999999995 9.249000000000004 17.683999999999997 5.4950000000000045 18.559999999999995 C 4.643000000000004 18.755999999999997 4.153000000000004 19.008999999999997 3.8720000000000043 19.407999999999994 C 5.884000000000004 21.614999999999995 8.782000000000004 22.999999999999993 12.000000000000004 22.999999999999993 C 15.218000000000004 22.999999999999993 18.115000000000002 21.61499999999999 20.127000000000002 19.409999999999993 z M 20.777 18.628 C 22.172 16.784 23 14.488 23 12 C 23 5.929 18.070999999999998 1 12 1 C 5.929000000000002 1 1 5.929 1 12 C 1 14.487 1.827 16.783 3.222 18.626 C 3.631 18.174 4.271 17.816000000000003 5.271 17.585 C 7.295999999999999 17.123 8.647 16.749000000000002 8.949 16.083000000000002 C 9.071 15.811000000000002 9.01 15.455000000000002 8.761 14.996000000000002 C 6.843999999999999 11.461000000000002 6.478999999999999 8.355000000000002 7.730999999999999 6.251000000000003 C 8.584 4.820000000000003 10.139 4.0000000000000036 12 4.0000000000000036 C 13.845 4.0000000000000036 15.391 4.808000000000003 16.240000000000002 6.2180000000000035 C 17.491000000000003 8.297000000000004 17.136000000000003 11.413000000000004 15.240000000000002 14.992000000000003 C 14.995000000000003 15.455000000000002 14.936000000000002 15.813000000000002 15.061000000000002 16.086000000000002 C 15.366000000000001 16.754 16.705000000000002 17.124000000000002 18.728 17.585 C 19.728 17.815 20.368000000000002 18.175 20.777 18.628 z" stroke-linecap="round" />
</g>
</svg>