<?xml version="1.0" encoding="UTF-8"?>
<svg width="20px" height="20px" viewBox="0 0 20 20" version="1.1" xmlns="http://www.w3.org/2000/svg" xmlns:xlink="http://www.w3.org/1999/xlink">
    <title>search</title>
    <g id="Desktop-/-Mobile" stroke="none" stroke-width="1" fill="none" fill-rule="evenodd">
        <g id="Login-/-Mobile" transform="translate(-49.000000, -606.000000)" fill-rule="nonzero">
            <g id="search" transform="translate(49.000000, 606.000000)">
                <path d="M4,11.4432545 L3.37174584,13.9481196 L1.07549132,14 C0.389248259,12.6406066 0,11.0852876 0,9.43249529 C0,7.83425643 0.363937605,6.32709057 1.00904204,5 L1.00953556,5 L3.05384683,5.40028446 L3.94937869,7.57052499 C3.76194589,8.15412257 3.65978673,8.78060238 3.65978673,9.43249529 C3.65985723,10.1399958 3.77985371,10.8178666 4,11.4432545 Z" id="Path" fill="#FBBB00"></path>
                <path d="M19.8213458,8 C19.9387711,8.62579305 20,9.2720741 20,9.93257955 C20,10.6732185 19.9230345,11.3956729 19.7764127,12.0925475 C19.2786733,14.4639419 17.9780886,16.5346437 16.1764095,18 L16.1758503,17.9994343 L13.2584315,17.8488253 L12.8455259,15.2409501 C14.041027,14.5315887 14.9753167,13.4214789 15.4674644,12.0925475 L10,12.0925475 L10,8 L15.5472257,8 L19.8213458,8 L19.8213458,8 Z" id="Path" fill="#518EF8"></path>
                <path d="M15.9994556,17.7738004 L16,17.7743533 C14.2940989,19.1668337 12.1270667,20 9.76810073,20 C5.97721369,20 2.68132612,17.8482361 1,14.6816591 L4.22589551,12 C5.06653913,14.2784033 7.23081051,15.9003115 9.76810073,15.9003115 C10.8586938,15.9003115 11.8804224,15.6009102 12.7571509,15.0782414 L15.9994556,17.7738004 Z" id="Path" fill="#28B446"></path>
                <path d="M16,2.28274847 L12.816636,4.91254164 C11.9209274,4.34758695 10.8621219,4.0212255 9.72777522,4.0212255 C7.16639797,4.0212255 4.98998158,5.68506468 4.20171196,8 L1.00053739,5.35548842 L1,5.35548842 C2.63542146,2.17379348 5.92998618,0 9.72777522,0 C12.1120451,0 14.2981729,0.856998993 16,2.28274847 Z" id="Path" fill="#F14336"></path>
            </g>
        </g>
    </g>
</svg>