<?xml version="1.0" encoding="UTF-8"?>
<svg width="48px" height="73px" viewBox="0 0 48 73" version="1.1" xmlns="http://www.w3.org/2000/svg" xmlns:xlink="http://www.w3.org/1999/xlink">
    <title>swipe-right</title>
    <g id="Desktop-/-Mobile" stroke="none" stroke-width="1" fill="none" fill-rule="evenodd">
        <g id="Landing-Page-" transform="translate(-913.000000, -3494.000000)" fill="#FFFFFF" fill-rule="nonzero">
            <g id="swipe-right" transform="translate(913.000000, 3494.000000)">
                <polygon id="Path" points="18.946 0 16.825 1.99287017 22.258 7.09766208 7 7.09766208 7 9.91643177 22.258 9.91643177 16.837 15.0071298 18.958 17 28 8.50704692"></polygon>
                <path d="M46.2812045,24.9422539 C45.0325102,23.6971011 43.353841,23.1567518 41.7134573,23.2683457 C41.8253685,21.6326144 41.2805373,19.9587062 40.0347881,18.7135534 C37.7435518,16.4288155 33.994524,16.4288155 31.7062328,18.7135534 C15.4378666,34.9328428 19.7906264,30.5953649 11.7771898,38.5860741 L11.7771898,35.649393 C11.7771898,32.4102338 10.4637047,29.4852995 8.33739039,27.3650158 C6.26997674,25.3034657 3.38384372,24.1581601 2.14398453,24.1581601 C0.960080985,24.1581601 0,25.1155181 0.0029450337,26.2960639 C0,55.6335076 0,53.548464 0,54.7466299 L0.0206152359,54.7290098 C0.141361617,59.7566078 2.2028852,64.3437036 5.56611369,67.6973933 C13.0052688,75.1154497 25.6541885,74.5839104 33.1139589,67.1452973 L37.4166531,62.8548063 C38.9186203,61.3570989 39.4722866,59.1868916 38.9333455,57.1370883 C38.2118122,54.3883548 35.9323561,48.1860844 34.5393552,44.9557353 L46.2841496,33.2442512 C48.5724407,30.9624501 48.5724407,27.2240551 46.2812045,24.9422539 Z M44.1990657,31.1709544 L31.7474632,43.6019253 C31.3233784,44.0248074 31.199687,44.6620672 31.4352897,45.2141632 C32.8017853,48.4180822 35.1106917,54.1827871 36.0854979,57.8830053 C36.3652761,58.9490205 36.0854979,60.0326558 35.3345143,60.7815094 L31.0318201,65.0720005 C24.5439108,71.5415088 13.8357683,71.7940634 7.64825251,65.6240965 C4.5971976,62.5464548 3.05989001,58.6436056 2.96564893,54.6614661 C2.93619859,53.3575798 2.94797873,28.6747755 2.94797873,27.3650158 C4.21139819,27.814328 5.32462092,28.5161947 6.25525157,29.4412493 C7.91919561,31.1004741 8.83215605,33.3029849 8.83215605,35.649393 C8.83215605,39.5375587 8.83215605,38.2424824 8.83215605,42.1306481 C8.83215605,42.7238577 9.19145017,43.2583336 9.74217147,43.4873947 C10.2928928,43.7135192 10.926075,43.5901786 11.3472148,43.1702332 C12.0508938,42.46855 33.5604996,21.0199493 33.7913166,20.7897869 C34.9398798,19.6444813 36.8099762,19.6444813 37.9555943,20.7897869 C39.1012124,21.9350925 39.1041574,23.799885 37.9555943,24.9422539 L26.9971239,35.8696441 C26.4228423,36.4422969 26.4228423,37.3732248 26.9971239,37.9458776 C27.5714055,38.5185304 28.5049811,38.5185304 29.0792627,37.9458776 L40.0377331,27.0184874 C41.1862962,25.8731818 43.0563926,25.8731818 44.2020107,27.0184874 C45.3476289,28.163793 45.3476289,30.0256488 44.1990657,31.1709544 Z" id="Shape"></path>
            </g>
        </g>
    </g>
</svg>