<?xml version="1.0" encoding="UTF-8"?>
<svg width="31px" height="49px" viewBox="0 0 31 49" version="1.1" xmlns="http://www.w3.org/2000/svg" xmlns:xlink="http://www.w3.org/1999/xlink">
    <title>swipe-left</title>
    <g id="Desktop-/-Mobile" stroke="none" stroke-width="1" fill="none" fill-rule="evenodd">
        <g id="Landing-Page-/-Mobile" transform="translate(-178.000000, -2800.000000)" fill="#FFFFFF" fill-rule="nonzero">
            <g id="swipe-left" transform="translate(178.000000, 2800.000000)">
                <polygon id="Path" points="27 5.01011441 16.8279092 5.01011441 20.4499415 1.40673189 19.0359289 0 13 6.0049743 19.0279288 12 20.4419414 10.5932681 16.8279092 6.99983419 27 6.99983419"></polygon>
                <g id="Group" transform="translate(0.000000, 11.000000)">
                    <path d="M23.6306374,17.8054837 C23.6300458,17.8048627 23.6287443,17.8034967 23.6281527,17.8028758 L23.6281527,17.8028758 C23.6296908,17.8046144 23.6293359,17.8041176 23.6306374,17.8054837 Z" id="Path"></path>
                    <path d="M30.9204885,6.38797386 C30.9223817,5.58922876 30.3052214,4.9414902 29.5441832,4.9414902 C28.7471756,4.9414902 26.8919084,5.71639216 25.5629313,7.11121569 C24.1960916,8.54577778 23.3517557,10.5247582 23.3517557,12.7163399 L23.3517557,14.703268 C18.2005496,9.2968366 20.9985954,12.2335163 10.5409466,1.25772549 C9.0680916,-0.288104575 6.6581374,-0.288104575 5.18717557,1.25772549 C4.38448855,2.10018301 4.03615267,3.23273203 4.1080916,4.33945098 C3.05361832,4.26394771 1.97453435,4.63152941 1.17184733,5.472 C-0.302782443,7.01385621 -0.302782443,9.54321569 1.1699542,11.0890458 L8.71975573,19.012915 C7.82430534,21.196549 6.3590229,25.3929412 5.89520611,27.2546928 C5.54876336,28.6415686 5.90467176,30.1118954 6.87016794,31.1232418 L9.63603053,34.0261438 C14.4313282,39.0590327 22.5623206,39.4186667 27.3443664,34.3996863 C29.5063206,32.1306144 30.8315115,29.0250458 30.9091298,25.6254118 L30.9223817,25.6373333 C30.9223817,24.8246797 30.9223817,26.2373856 30.9204885,6.38797386 Z M29.016,25.5777255 C28.9554198,28.272 27.9672061,30.9126275 26.0059237,32.9949281 C22.028458,37.1694641 15.1450382,36.9985882 10.9744733,32.6213856 L8.20861069,29.7184837 C7.7258626,29.211817 7.54601527,28.4806275 7.7258626,27.7573856 C8.35059542,25.2538562 9.83670229,21.3535163 10.7151145,19.1857778 C10.8665649,18.8142222 10.7851603,18.3810719 10.5144427,18.0949542 L2.50839695,9.68428758 C1.77019466,8.90938562 1.77019466,7.64768627 2.50839695,6.87477124 C3.24671756,6.09986928 4.44885496,6.09986928 5.18528244,6.87477124 L12.2296183,14.2681307 C12.5987786,14.6555817 13.1989008,14.6555817 13.5680611,14.2681307 C13.9372214,13.8806797 13.9372214,13.2508235 13.5680611,12.8633725 L6.52372519,5.47001307 C5.78540458,4.69511111 5.78540458,3.43341176 6.52372519,2.66049673 C7.2620458,1.8875817 8.46418321,1.88559477 9.20061069,2.66049673 C9.34898473,2.81622222 23.1759313,17.3282484 23.6281527,17.8028758 C23.8988702,18.0870065 24.3058931,18.1724444 24.6599084,18.0174641 C25.0139237,17.8644706 25.2448855,17.5008627 25.2448855,17.0995033 C25.2448855,14.4688105 25.2448855,15.3450458 25.2448855,12.7143529 C25.2448855,11.1267974 25.8336489,9.63660131 26.901374,8.51398693 C27.4977099,7.88810458 28.2152061,7.41124183 29.0273588,7.10922876 C29.0273588,7.99539869 29.0349313,24.6955294 29.016,25.5777255 Z" id="Shape"></path>
                </g>
            </g>
        </g>
    </g>
</svg>